# Blender 4.5.0
# www.blender.org
mtllib capsule.mtl
o Cylinder
o Sphere
v 0.000000 0.831470 -0.555570
v 0.000000 0.555570 -0.831470
v 0.000000 0.195090 -0.980785
v 0.000000 0.000000 -1.000000
v 0.038060 0.980785 -0.191342
v 0.074658 0.923880 -0.375330
v 0.108386 0.831470 -0.544895
v 0.137950 0.707107 -0.693520
v 0.162212 0.555570 -0.815493
v 0.180240 0.382683 -0.906127
v 0.191342 0.195090 -0.961940
v 0.195090 0.000000 -0.980785
v 0.074658 0.980785 -0.180240
v 0.146447 0.923880 -0.353553
v 0.212608 0.831470 -0.513280
v 0.270598 0.707107 -0.653281
v 0.318190 0.555570 -0.768178
v 0.353553 0.382683 -0.853553
v 0.375330 0.195090 -0.906127
v 0.382683 0.000000 -0.923879
v 0.108386 0.980785 -0.162212
v 0.212608 0.923880 -0.318190
v 0.308658 0.831470 -0.461940
v 0.392847 0.707107 -0.587938
v 0.461940 0.555570 -0.691342
v 0.513280 0.382683 -0.768178
v 0.544895 0.195090 -0.815493
v 0.555570 0.000000 -0.831469
v 0.137950 0.980785 -0.137950
v 0.270598 0.923880 -0.270598
v 0.392847 0.831470 -0.392847
v 0.500000 0.707107 -0.500000
v 0.587938 0.555570 -0.587938
v 0.653281 0.382683 -0.653281
v 0.693520 0.195090 -0.693520
v 0.707107 0.000000 -0.707107
v 0.162212 0.980785 -0.108386
v 0.318190 0.923880 -0.212608
v 0.461940 0.831470 -0.308658
v 0.587938 0.707107 -0.392847
v 0.691342 0.555570 -0.461940
v 0.768178 0.382683 -0.513280
v 0.815493 0.195090 -0.544895
v 0.831470 0.000000 -0.555570
v 0.000000 1.000000 0.000000
v 0.180240 0.980785 -0.074658
v 0.353553 0.923880 -0.146447
v 0.513280 0.831470 -0.212607
v 0.653281 0.707107 -0.270598
v 0.768178 0.555570 -0.318190
v 0.853553 0.382683 -0.353553
v 0.906127 0.195090 -0.375330
v 0.923879 0.000000 -0.382683
v 0.191342 0.980785 -0.038060
v 0.375330 0.923880 -0.074658
v 0.544895 0.831470 -0.108386
v 0.693520 0.707107 -0.137950
v 0.815493 0.555570 -0.162212
v 0.906127 0.382683 -0.180240
v 0.961940 0.195090 -0.191342
v 0.980785 0.000000 -0.195090
v 0.195090 0.980785 0.000000
v 0.382683 0.923880 0.000000
v 0.555570 0.831470 0.000000
v 0.707107 0.707107 -0.000000
v 0.831469 0.555570 0.000000
v 0.923879 0.382683 -0.000000
v 0.980785 0.195090 0.000000
v 1.000000 0.000000 0.000000
v 0.191342 0.980785 0.038060
v 0.375330 0.923880 0.074658
v 0.544895 0.831470 0.108386
v 0.693520 0.707107 0.137950
v 0.815493 0.555570 0.162212
v 0.906127 0.382683 0.180240
v 0.961940 0.195090 0.191342
v 0.980785 0.000000 0.195090
v 0.180240 0.980785 0.074658
v 0.353553 0.923880 0.146447
v 0.513280 0.831470 0.212608
v 0.653281 0.707107 0.270598
v 0.768178 0.555570 0.318190
v 0.853553 0.382683 0.353553
v 0.906127 0.195090 0.375330
v 0.923879 0.000000 0.382683
v 0.162212 0.980785 0.108386
v 0.318190 0.923880 0.212608
v 0.461940 0.831470 0.308658
v 0.587938 0.707107 0.392847
v 0.691341 0.555570 0.461940
v 0.768178 0.382683 0.513280
v 0.815493 0.195090 0.544895
v 0.831469 0.000000 0.555570
v 0.137950 0.980785 0.137950
v 0.270598 0.923880 0.270598
v 0.392847 0.831470 0.392847
v 0.500000 0.707107 0.500000
v 0.587938 0.555570 0.587938
v 0.653281 0.382683 0.653281
v 0.693520 0.195090 0.693520
v 0.707106 0.000000 0.707107
v 0.108386 0.980785 0.162212
v 0.212607 0.923880 0.318190
v 0.308658 0.831470 0.461940
v 0.392847 0.707107 0.587938
v 0.461940 0.555570 0.691342
v 0.513280 0.382683 0.768178
v 0.544895 0.195090 0.815493
v 0.555570 0.000000 0.831469
v 0.074658 0.980785 0.180240
v 0.146447 0.923880 0.353553
v 0.212607 0.831470 0.513280
v 0.270598 0.707107 0.653281
v 0.318189 0.555570 0.768178
v 0.353553 0.382683 0.853553
v 0.375330 0.195090 0.906127
v 0.382683 0.000000 0.923879
v 0.038060 0.980785 0.191342
v 0.074658 0.923880 0.375330
v 0.108386 0.831470 0.544895
v 0.137950 0.707107 0.693520
v 0.162212 0.555570 0.815493
v 0.180240 0.382683 0.906127
v 0.191342 0.195090 0.961939
v 0.195090 0.000000 0.980785
v -0.000000 0.980785 0.195090
v -0.000000 0.923880 0.382683
v -0.000000 0.831470 0.555570
v -0.000000 0.707107 0.707107
v -0.000000 0.555570 0.831469
v 0.000000 0.382683 0.923879
v -0.000000 0.195090 0.980785
v -0.000000 0.000000 0.999999
v -0.038060 0.980785 0.191342
v -0.074658 0.923880 0.375330
v -0.108386 0.831470 0.544895
v -0.137950 0.707107 0.693520
v -0.162212 0.555570 0.815493
v -0.180240 0.382683 0.906127
v -0.191342 0.195090 0.961939
v -0.195091 0.000000 0.980785
v -0.074658 0.980785 0.180240
v -0.146447 0.923880 0.353553
v -0.212608 0.831470 0.513280
v -0.270598 0.707107 0.653281
v -0.318190 0.555570 0.768177
v -0.353553 0.382683 0.853553
v -0.375330 0.195090 0.906127
v -0.382683 0.000000 0.923879
v -0.108386 0.980785 0.162212
v -0.212608 0.923880 0.318190
v -0.308658 0.831470 0.461939
v -0.392847 0.707107 0.587938
v -0.461940 0.555570 0.691341
v -0.513280 0.382683 0.768178
v -0.544895 0.195090 0.815493
v -0.555570 0.000000 0.831469
v -0.137950 0.980785 0.137950
v -0.270598 0.923880 0.270598
v -0.392847 0.831470 0.392847
v -0.500000 0.707107 0.500000
v -0.587938 0.555570 0.587937
v -0.653281 0.382683 0.653281
v -0.693520 0.195090 0.693520
v -0.707106 0.000000 0.707106
v -0.162212 0.980785 0.108386
v -0.318190 0.923880 0.212607
v -0.461940 0.831470 0.308658
v -0.587938 0.707107 0.392847
v -0.691341 0.555570 0.461939
v -0.768177 0.382683 0.513280
v -0.815493 0.195090 0.544895
v -0.831469 0.000000 0.555569
v -0.180240 0.980785 0.074658
v -0.353553 0.923880 0.146447
v -0.513280 0.831470 0.212607
v -0.653281 0.707107 0.270598
v -0.768177 0.555570 0.318189
v -0.853553 0.382683 0.353553
v -0.906127 0.195090 0.375330
v -0.923879 0.000000 0.382683
v -0.191342 0.980785 0.038060
v -0.375330 0.923880 0.074658
v -0.544895 0.831470 0.108386
v -0.693520 0.707107 0.137950
v -0.815493 0.555570 0.162211
v -0.906127 0.382683 0.180240
v -0.961939 0.195090 0.191341
v -0.980784 0.000000 0.195090
v -0.195090 0.980785 -0.000000
v -0.382683 0.923880 -0.000000
v -0.555570 0.831470 -0.000000
v -0.707107 0.707107 -0.000000
v -0.831469 0.555570 -0.000000
v -0.923879 0.382683 -0.000000
v -0.980785 0.195090 -0.000000
v -0.999999 0.000000 -0.000000
v -0.191342 0.980785 -0.038060
v -0.375330 0.923880 -0.074658
v -0.544895 0.831470 -0.108386
v -0.693520 0.707107 -0.137950
v -0.815493 0.555570 -0.162212
v -0.906127 0.382683 -0.180240
v -0.961939 0.195090 -0.191342
v -0.980784 0.000000 -0.195091
v -0.180240 0.980785 -0.074658
v -0.353553 0.923880 -0.146447
v -0.513279 0.831470 -0.212607
v -0.653281 0.707107 -0.270598
v -0.768177 0.555570 -0.318190
v -0.853553 0.382683 -0.353553
v -0.906127 0.195090 -0.375330
v -0.923878 0.000000 -0.382683
v -0.162212 0.980785 -0.108386
v -0.318189 0.923880 -0.212607
v -0.461939 0.831470 -0.308658
v -0.587938 0.707107 -0.392847
v -0.691341 0.555570 -0.461940
v -0.768177 0.382683 -0.513280
v -0.815493 0.195090 -0.544895
v -0.831468 0.000000 -0.555570
v -0.137950 0.980785 -0.137950
v -0.270598 0.923880 -0.270598
v -0.392847 0.831470 -0.392847
v -0.500000 0.707107 -0.500000
v -0.587937 0.555570 -0.587938
v -0.653281 0.382683 -0.653281
v -0.693519 0.195090 -0.693520
v -0.707106 0.000000 -0.707106
v -0.108386 0.980785 -0.162212
v -0.212607 0.923880 -0.318190
v -0.308658 0.831470 -0.461939
v -0.392847 0.707107 -0.587938
v -0.461939 0.555570 -0.691341
v -0.513280 0.382683 -0.768177
v -0.544895 0.195090 -0.815493
v -0.555569 0.000000 -0.831469
v -0.074658 0.980785 -0.180240
v -0.146446 0.923880 -0.353553
v -0.212607 0.831470 -0.513279
v -0.270598 0.707107 -0.653281
v -0.318189 0.555570 -0.768177
v -0.353553 0.382683 -0.853553
v -0.375330 0.195090 -0.906127
v -0.382683 0.000000 -0.923879
v -0.038060 0.980785 -0.191342
v -0.074658 0.923880 -0.375330
v -0.108386 0.831470 -0.544895
v -0.137950 0.707107 -0.693520
v -0.162211 0.555570 -0.815493
v -0.180240 0.382683 -0.906127
v -0.191341 0.195090 -0.961939
v -0.195090 0.000000 -0.980784
v 0.000000 0.980785 -0.195090
v 0.000000 0.923880 -0.382683
v 0.000000 0.707107 -0.707107
v 0.000000 0.382683 -0.923879
vn 0.0624 0.7715 -0.6332
vn 0.0759 0.6326 -0.7708
vn 0.0865 0.4696 -0.8786
vn 0.0938 0.2890 -0.9527
vn 0.0975 0.0975 -0.9904
vn 0.0097 0.9951 -0.0980
vn 0.0286 0.9565 -0.2902
vn 0.0464 0.8810 -0.4709
vn 0.1374 0.8810 -0.4528
vn 0.1847 0.7715 -0.6088
vn 0.2248 0.6326 -0.7412
vn 0.2563 0.4696 -0.8448
vn 0.2779 0.2890 -0.9161
vn 0.2889 0.0976 -0.9524
vn 0.0286 0.9951 -0.0942
vn 0.0846 0.9565 -0.2790
vn 0.4513 0.2890 -0.8443
vn 0.4691 0.0975 -0.8777
vn 0.0464 0.9951 -0.0869
vn 0.1374 0.9565 -0.2571
vn 0.2230 0.8810 -0.4173
vn 0.2999 0.7715 -0.5611
vn 0.3651 0.6326 -0.6831
vn 0.4162 0.4696 -0.7786
vn 0.4036 0.7715 -0.4918
vn 0.4913 0.6326 -0.5987
vn 0.5601 0.4696 -0.6825
vn 0.6073 0.2890 -0.7400
vn 0.6314 0.0975 -0.7693
vn 0.0625 0.9951 -0.0761
vn 0.1850 0.9565 -0.2254
vn 0.3002 0.8810 -0.3658
vn 0.7693 0.0975 -0.6314
vn 0.0761 0.9951 -0.0625
vn 0.2254 0.9565 -0.1850
vn 0.3658 0.8810 -0.3002
vn 0.4918 0.7715 -0.4036
vn 0.5987 0.6326 -0.4913
vn 0.6825 0.4696 -0.5601
vn 0.7400 0.2890 -0.6073
vn 0.5611 0.7715 -0.2999
vn 0.6831 0.6326 -0.3651
vn 0.7786 0.4696 -0.4162
vn 0.8443 0.2890 -0.4513
vn 0.8777 0.0975 -0.4691
vn 0.0869 0.9951 -0.0464
vn 0.2571 0.9565 -0.1374
vn 0.4173 0.8810 -0.2230
vn 0.9524 0.0975 -0.2889
vn 0.0942 0.9951 -0.0286
vn 0.2790 0.9565 -0.0846
vn 0.4528 0.8810 -0.1374
vn 0.6088 0.7715 -0.1847
vn 0.7412 0.6326 -0.2248
vn 0.8448 0.4696 -0.2563
vn 0.9161 0.2890 -0.2779
vn 0.7708 0.6326 -0.0759
vn 0.8786 0.4696 -0.0865
vn 0.9527 0.2890 -0.0938
vn 0.9904 0.0975 -0.0975
vn 0.0980 0.9951 -0.0097
vn 0.2902 0.9565 -0.0286
vn 0.4709 0.8810 -0.0464
vn 0.6332 0.7715 -0.0624
vn 0.2902 0.9565 0.0286
vn 0.4709 0.8810 0.0464
vn 0.6332 0.7715 0.0624
vn 0.7708 0.6326 0.0759
vn 0.8786 0.4696 0.0865
vn 0.9527 0.2890 0.0938
vn 0.9904 0.0975 0.0976
vn 0.0980 0.9951 0.0097
vn 0.8448 0.4696 0.2563
vn 0.9161 0.2890 0.2779
vn 0.9524 0.0975 0.2889
vn 0.0942 0.9951 0.0286
vn 0.2790 0.9565 0.0846
vn 0.4528 0.8810 0.1374
vn 0.6088 0.7715 0.1847
vn 0.7412 0.6326 0.2248
vn 0.2571 0.9565 0.1374
vn 0.4173 0.8810 0.2230
vn 0.5611 0.7715 0.2999
vn 0.6831 0.6326 0.3651
vn 0.7786 0.4696 0.4162
vn 0.8443 0.2890 0.4513
vn 0.8777 0.0975 0.4691
vn 0.0869 0.9951 0.0464
vn 0.6825 0.4696 0.5601
vn 0.7400 0.2890 0.6073
vn 0.7693 0.0975 0.6314
vn 0.0761 0.9951 0.0625
vn 0.2254 0.9565 0.1850
vn 0.3658 0.8810 0.3002
vn 0.4918 0.7715 0.4036
vn 0.5987 0.6326 0.4913
vn 0.3002 0.8810 0.3658
vn 0.4036 0.7715 0.4918
vn 0.4913 0.6326 0.5987
vn 0.5601 0.4696 0.6825
vn 0.6073 0.2890 0.7400
vn 0.6314 0.0975 0.7693
vn 0.0625 0.9951 0.0761
vn 0.1850 0.9565 0.2254
vn 0.4513 0.2890 0.8443
vn 0.4691 0.0975 0.8777
vn 0.0464 0.9951 0.0869
vn 0.1374 0.9565 0.2571
vn 0.2230 0.8810 0.4173
vn 0.2999 0.7715 0.5611
vn 0.3651 0.6326 0.6831
vn 0.4162 0.4696 0.7786
vn 0.1374 0.8810 0.4528
vn 0.1847 0.7715 0.6088
vn 0.2248 0.6326 0.7412
vn 0.2563 0.4696 0.8448
vn 0.2779 0.2890 0.9161
vn 0.2889 0.0975 0.9524
vn 0.0286 0.9951 0.0942
vn 0.0846 0.9565 0.2790
vn 0.0938 0.2890 0.9527
vn 0.0975 0.0975 0.9904
vn 0.0097 0.9951 0.0980
vn 0.0286 0.9565 0.2902
vn 0.0464 0.8810 0.4709
vn 0.0624 0.7715 0.6332
vn 0.0759 0.6326 0.7708
vn 0.0865 0.4696 0.8786
vn -0.0624 0.7715 0.6332
vn -0.0759 0.6326 0.7708
vn -0.0865 0.4696 0.8786
vn -0.0938 0.2890 0.9527
vn -0.0976 0.0975 0.9904
vn -0.0097 0.9951 0.0980
vn -0.0286 0.9565 0.2902
vn -0.0464 0.8810 0.4709
vn -0.2889 0.0975 0.9524
vn -0.0286 0.9951 0.0942
vn -0.0846 0.9565 0.2790
vn -0.1374 0.8810 0.4528
vn -0.1847 0.7715 0.6088
vn -0.2248 0.6326 0.7412
vn -0.2563 0.4696 0.8448
vn -0.2779 0.2890 0.9161
vn -0.3651 0.6326 0.6831
vn -0.4162 0.4696 0.7786
vn -0.4513 0.2890 0.8443
vn -0.4691 0.0975 0.8777
vn -0.0464 0.9951 0.0869
vn -0.1374 0.9565 0.2571
vn -0.2230 0.8810 0.4173
vn -0.2999 0.7715 0.5611
vn -0.0625 0.9951 0.0761
vn -0.1850 0.9565 0.2254
vn -0.3002 0.8810 0.3658
vn -0.4036 0.7715 0.4918
vn -0.4913 0.6326 0.5987
vn -0.5601 0.4696 0.6825
vn -0.6073 0.2890 0.7400
vn -0.6314 0.0975 0.7693
vn -0.5987 0.6326 0.4913
vn -0.6825 0.4696 0.5601
vn -0.7400 0.2890 0.6073
vn -0.7693 0.0975 0.6314
vn -0.0761 0.9951 0.0625
vn -0.2254 0.9565 0.1850
vn -0.3658 0.8810 0.3002
vn -0.4918 0.7715 0.4036
vn -0.2571 0.9565 0.1374
vn -0.4173 0.8810 0.2230
vn -0.5611 0.7715 0.2999
vn -0.6831 0.6326 0.3651
vn -0.7786 0.4696 0.4162
vn -0.8443 0.2890 0.4513
vn -0.8777 0.0975 0.4691
vn -0.0869 0.9951 0.0464
vn -0.8448 0.4696 0.2563
vn -0.9161 0.2890 0.2779
vn -0.9524 0.0975 0.2889
vn -0.0942 0.9951 0.0286
vn -0.2790 0.9565 0.0846
vn -0.4528 0.8810 0.1374
vn -0.6088 0.7715 0.1847
vn -0.7412 0.6326 0.2248
vn -0.2902 0.9565 0.0286
vn -0.4709 0.8810 0.0464
vn -0.6332 0.7715 0.0624
vn -0.7708 0.6326 0.0759
vn -0.8786 0.4696 0.0865
vn -0.9527 0.2890 0.0938
vn -0.9904 0.0975 0.0975
vn -0.0980 0.9951 0.0097
vn -0.8786 0.4696 -0.0865
vn -0.9527 0.2890 -0.0938
vn -0.9904 0.0975 -0.0976
vn -0.0980 0.9951 -0.0097
vn -0.2902 0.9565 -0.0286
vn -0.4709 0.8810 -0.0464
vn -0.6332 0.7715 -0.0624
vn -0.7708 0.6326 -0.0759
vn -0.4528 0.8810 -0.1374
vn -0.6088 0.7715 -0.1847
vn -0.7412 0.6326 -0.2248
vn -0.8448 0.4696 -0.2563
vn -0.9161 0.2890 -0.2779
vn -0.9524 0.0975 -0.2889
vn -0.0942 0.9951 -0.0286
vn -0.2790 0.9565 -0.0846
vn -0.8443 0.2890 -0.4513
vn -0.8777 0.0975 -0.4691
vn -0.0869 0.9951 -0.0464
vn -0.2571 0.9565 -0.1374
vn -0.4173 0.8810 -0.2231
vn -0.5611 0.7715 -0.2999
vn -0.6831 0.6326 -0.3651
vn -0.7786 0.4696 -0.4162
vn -0.4918 0.7715 -0.4036
vn -0.5987 0.6326 -0.4913
vn -0.6825 0.4696 -0.5601
vn -0.7400 0.2890 -0.6073
vn -0.7693 0.0975 -0.6314
vn -0.0761 0.9951 -0.0625
vn -0.2254 0.9565 -0.1850
vn -0.3658 0.8810 -0.3002
vn -0.6314 0.0975 -0.7693
vn -0.0625 0.9951 -0.0761
vn -0.1850 0.9565 -0.2254
vn -0.3002 0.8810 -0.3658
vn -0.4036 0.7715 -0.4918
vn -0.4913 0.6326 -0.5987
vn -0.5601 0.4696 -0.6825
vn -0.6073 0.2890 -0.7400
vn -0.2999 0.7715 -0.5611
vn -0.3651 0.6326 -0.6831
vn -0.4162 0.4696 -0.7786
vn -0.4513 0.2890 -0.8443
vn -0.4691 0.0975 -0.8777
vn -0.0464 0.9951 -0.0869
vn -0.1374 0.9565 -0.2571
vn -0.2230 0.8810 -0.4173
vn -0.2889 0.0975 -0.9524
vn -0.0286 0.9951 -0.0942
vn -0.0846 0.9565 -0.2790
vn -0.1374 0.8810 -0.4528
vn -0.1847 0.7715 -0.6088
vn -0.2248 0.6326 -0.7412
vn -0.2563 0.4696 -0.8448
vn -0.2779 0.2890 -0.9161
vn -0.0759 0.6326 -0.7708
vn -0.0865 0.4696 -0.8786
vn -0.0938 0.2890 -0.9527
vn -0.0976 0.0975 -0.9904
vn -0.0097 0.9951 -0.0980
vn -0.0286 0.9565 -0.2902
vn -0.0464 0.8810 -0.4709
vn -0.0624 0.7715 -0.6332
vt 0.750000 0.750000
vt 0.750000 0.812500
vt 0.718750 0.812500
vt 0.718750 0.750000
vt 0.750000 0.687500
vt 0.718750 0.687500
vt 0.750000 0.625000
vt 0.718750 0.625000
vt 0.750000 0.562500
vt 0.718750 0.562500
vt 0.750000 0.500000
vt 0.718750 0.500000
vt 0.750000 0.937500
vt 0.734375 1.000000
vt 0.718750 0.937500
vt 0.750000 0.875000
vt 0.718750 0.875000
vt 0.687500 0.875000
vt 0.687500 0.812500
vt 0.687500 0.750000
vt 0.687500 0.687500
vt 0.687500 0.625000
vt 0.687500 0.562500
vt 0.687500 0.500000
vt 0.703125 1.000000
vt 0.687500 0.937500
vt 0.656250 0.625000
vt 0.656250 0.562500
vt 0.656250 0.500000
vt 0.671875 1.000000
vt 0.656250 0.937500
vt 0.656250 0.875000
vt 0.656250 0.812500
vt 0.656250 0.750000
vt 0.656250 0.687500
vt 0.625000 0.812500
vt 0.625000 0.750000
vt 0.625000 0.687500
vt 0.625000 0.625000
vt 0.625000 0.562500
vt 0.625000 0.500000
vt 0.640625 1.000000
vt 0.625000 0.937500
vt 0.625000 0.875000
vt 0.593750 0.562500
vt 0.593750 0.500000
vt 0.609375 1.000000
vt 0.593750 0.937500
vt 0.593750 0.875000
vt 0.593750 0.812500
vt 0.593750 0.750000
vt 0.593750 0.687500
vt 0.593750 0.625000
vt 0.562500 0.812500
vt 0.562500 0.750000
vt 0.562500 0.687500
vt 0.562500 0.625000
vt 0.562500 0.562500
vt 0.562500 0.500000
vt 0.578125 1.000000
vt 0.562500 0.937500
vt 0.562500 0.875000
vt 0.531250 0.562500
vt 0.531250 0.500000
vt 0.546875 1.000000
vt 0.531250 0.937500
vt 0.531250 0.875000
vt 0.531250 0.812500
vt 0.531250 0.750000
vt 0.531250 0.687500
vt 0.531250 0.625000
vt 0.500000 0.750000
vt 0.500000 0.687500
vt 0.500000 0.625000
vt 0.500000 0.562500
vt 0.500000 0.500000
vt 0.515625 1.000000
vt 0.500000 0.937500
vt 0.500000 0.875000
vt 0.500000 0.812500
vt 0.468750 0.937500
vt 0.468750 0.875000
vt 0.468750 0.812500
vt 0.468750 0.750000
vt 0.468750 0.687500
vt 0.468750 0.625000
vt 0.468750 0.562500
vt 0.468750 0.500000
vt 0.484375 1.000000
vt 0.437500 0.687500
vt 0.437500 0.625000
vt 0.437500 0.562500
vt 0.437500 0.500000
vt 0.453125 1.000000
vt 0.437500 0.937500
vt 0.437500 0.875000
vt 0.437500 0.812500
vt 0.437500 0.750000
vt 0.406250 0.937500
vt 0.406250 0.875000
vt 0.406250 0.812500
vt 0.406250 0.750000
vt 0.406250 0.687500
vt 0.406250 0.625000
vt 0.406250 0.562500
vt 0.406250 0.500000
vt 0.421875 1.000000
vt 0.375000 0.687500
vt 0.375000 0.625000
vt 0.375000 0.562500
vt 0.375000 0.500000
vt 0.390625 1.000000
vt 0.375000 0.937500
vt 0.375000 0.875000
vt 0.375000 0.812500
vt 0.375000 0.750000
vt 0.343750 0.875000
vt 0.343750 0.812500
vt 0.343750 0.750000
vt 0.343750 0.687500
vt 0.343750 0.625000
vt 0.343750 0.562500
vt 0.343750 0.500000
vt 0.359375 1.000000
vt 0.343750 0.937500
vt 0.312500 0.625000
vt 0.312500 0.562500
vt 0.312500 0.500000
vt 0.328125 1.000000
vt 0.312500 0.937500
vt 0.312500 0.875000
vt 0.312500 0.812500
vt 0.312500 0.750000
vt 0.312500 0.687500
vt 0.281250 0.875000
vt 0.281250 0.812500
vt 0.281250 0.750000
vt 0.281250 0.687500
vt 0.281250 0.625000
vt 0.281250 0.562500
vt 0.281250 0.500000
vt 0.296875 1.000000
vt 0.281250 0.937500
vt 0.250000 0.625000
vt 0.250000 0.562500
vt 0.250000 0.500000
vt 0.265625 1.000000
vt 0.250000 0.937500
vt 0.250000 0.875000
vt 0.250000 0.812500
vt 0.250000 0.750000
vt 0.250000 0.687500
vt 0.218750 0.812500
vt 0.218750 0.750000
vt 0.218750 0.687500
vt 0.218750 0.625000
vt 0.218750 0.562500
vt 0.218750 0.500000
vt 0.234375 1.000000
vt 0.218750 0.937500
vt 0.218750 0.875000
vt 0.187500 0.562500
vt 0.187500 0.500000
vt 0.203125 1.000000
vt 0.187500 0.937500
vt 0.187500 0.875000
vt 0.187500 0.812500
vt 0.187500 0.750000
vt 0.187500 0.687500
vt 0.187500 0.625000
vt 0.156250 0.750000
vt 0.156250 0.687500
vt 0.156250 0.625000
vt 0.156250 0.562500
vt 0.156250 0.500000
vt 0.171875 1.000000
vt 0.156250 0.937500
vt 0.156250 0.875000
vt 0.156250 0.812500
vt 0.140625 1.000000
vt 0.125000 0.937500
vt 0.125000 0.875000
vt 0.125000 0.812500
vt 0.125000 0.750000
vt 0.125000 0.687500
vt 0.125000 0.625000
vt 0.125000 0.562500
vt 0.125000 0.500000
vt 0.093750 0.750000
vt 0.093750 0.687500
vt 0.093750 0.625000
vt 0.093750 0.562500
vt 0.093750 0.500000
vt 0.109375 1.000000
vt 0.093750 0.937500
vt 0.093750 0.875000
vt 0.093750 0.812500
vt 0.062500 0.937500
vt 0.062500 0.875000
vt 0.062500 0.812500
vt 0.062500 0.750000
vt 0.062500 0.687500
vt 0.062500 0.625000
vt 0.062500 0.562500
vt 0.062500 0.500000
vt 0.078125 1.000000
vt 0.031250 0.687500
vt 0.031250 0.625000
vt 0.031250 0.562500
vt 0.031250 0.500000
vt 0.046875 1.000000
vt 0.031250 0.937500
vt 0.031250 0.875000
vt 0.031250 0.812500
vt 0.031250 0.750000
vt 0.000000 0.937500
vt 0.000000 0.875000
vt 0.000000 0.812500
vt 0.000000 0.750000
vt 0.000000 0.687500
vt 0.000000 0.625000
vt 0.000000 0.562500
vt 0.000000 0.500000
vt 0.015625 1.000000
vt 1.000000 0.625000
vt 1.000000 0.687500
vt 0.968750 0.687500
vt 0.968750 0.625000
vt 1.000000 0.562500
vt 0.968750 0.562500
vt 1.000000 0.500000
vt 0.968750 0.500000
vt 1.000000 0.937500
vt 0.984375 1.000000
vt 0.968750 0.937500
vt 1.000000 0.875000
vt 0.968750 0.875000
vt 1.000000 0.812500
vt 0.968750 0.812500
vt 1.000000 0.750000
vt 0.968750 0.750000
vt 0.937500 0.875000
vt 0.937500 0.812500
vt 0.937500 0.750000
vt 0.937500 0.687500
vt 0.937500 0.625000
vt 0.937500 0.562500
vt 0.937500 0.500000
vt 0.953125 1.000000
vt 0.937500 0.937500
vt 0.906250 0.625000
vt 0.906250 0.562500
vt 0.906250 0.500000
vt 0.921875 1.000000
vt 0.906250 0.937500
vt 0.906250 0.875000
vt 0.906250 0.812500
vt 0.906250 0.750000
vt 0.906250 0.687500
vt 0.875000 0.812500
vt 0.875000 0.750000
vt 0.875000 0.687500
vt 0.875000 0.625000
vt 0.875000 0.562500
vt 0.875000 0.500000
vt 0.890625 1.000000
vt 0.875000 0.937500
vt 0.875000 0.875000
vt 0.843750 0.562500
vt 0.843750 0.500000
vt 0.859375 1.000000
vt 0.843750 0.937500
vt 0.843750 0.875000
vt 0.843750 0.812500
vt 0.843750 0.750000
vt 0.843750 0.687500
vt 0.843750 0.625000
vt 0.812500 0.812500
vt 0.812500 0.750000
vt 0.812500 0.687500
vt 0.812500 0.625000
vt 0.812500 0.562500
vt 0.812500 0.500000
vt 0.828125 1.000000
vt 0.812500 0.937500
vt 0.812500 0.875000
vt 0.781250 0.562500
vt 0.781250 0.500000
vt 0.796875 1.000000
vt 0.781250 0.937500
vt 0.781250 0.875000
vt 0.781250 0.812500
vt 0.781250 0.750000
vt 0.781250 0.687500
vt 0.781250 0.625000
vt 0.765625 1.000000
s 0
f 256/1/1 1/2/1 7/3/1 8/4/1
f 2/5/2 256/1/2 8/4/2 9/6/2
f 257/7/3 2/5/3 9/6/3 10/8/3
f 3/9/4 257/7/4 10/8/4 11/10/4
f 4/11/5 3/9/5 11/10/5 12/12/5
f 254/13/6 45/14/6 5/15/6
f 255/16/7 254/13/7 5/15/7 6/17/7
f 1/2/8 255/16/8 6/17/8 7/3/8
f 7/3/9 6/17/9 14/18/9 15/19/9
f 8/4/10 7/3/10 15/19/10 16/20/10
f 9/6/11 8/4/11 16/20/11 17/21/11
f 10/8/12 9/6/12 17/21/12 18/22/12
f 11/10/13 10/8/13 18/22/13 19/23/13
f 12/12/14 11/10/14 19/23/14 20/24/14
f 5/15/15 45/25/15 13/26/15
f 6/17/16 5/15/16 13/26/16 14/18/16
f 19/23/17 18/22/17 26/27/17 27/28/17
f 20/24/18 19/23/18 27/28/18 28/29/18
f 13/26/19 45/30/19 21/31/19
f 14/18/20 13/26/20 21/31/20 22/32/20
f 15/19/21 14/18/21 22/32/21 23/33/21
f 16/20/22 15/19/22 23/33/22 24/34/22
f 17/21/23 16/20/23 24/34/23 25/35/23
f 18/22/24 17/21/24 25/35/24 26/27/24
f 24/34/25 23/33/25 31/36/25 32/37/25
f 25/35/26 24/34/26 32/37/26 33/38/26
f 26/27/27 25/35/27 33/38/27 34/39/27
f 27/28/28 26/27/28 34/39/28 35/40/28
f 28/29/29 27/28/29 35/40/29 36/41/29
f 21/31/30 45/42/30 29/43/30
f 22/32/31 21/31/31 29/43/31 30/44/31
f 23/33/32 22/32/32 30/44/32 31/36/32
f 36/41/33 35/40/33 43/45/33 44/46/33
f 29/43/34 45/47/34 37/48/34
f 30/44/35 29/43/35 37/48/35 38/49/35
f 31/36/36 30/44/36 38/49/36 39/50/36
f 32/37/37 31/36/37 39/50/37 40/51/37
f 33/38/38 32/37/38 40/51/38 41/52/38
f 34/39/39 33/38/39 41/52/39 42/53/39
f 35/40/40 34/39/40 42/53/40 43/45/40
f 40/51/41 39/50/41 48/54/41 49/55/41
f 41/52/42 40/51/42 49/55/42 50/56/42
f 42/53/43 41/52/43 50/56/43 51/57/43
f 43/45/44 42/53/44 51/57/44 52/58/44
f 44/46/45 43/45/45 52/58/45 53/59/45
f 37/48/46 45/60/46 46/61/46
f 38/49/47 37/48/47 46/61/47 47/62/47
f 39/50/48 38/49/48 47/62/48 48/54/48
f 53/59/49 52/58/49 60/63/49 61/64/49
f 46/61/50 45/65/50 54/66/50
f 47/62/51 46/61/51 54/66/51 55/67/51
f 48/54/52 47/62/52 55/67/52 56/68/52
f 49/55/53 48/54/53 56/68/53 57/69/53
f 50/56/54 49/55/54 57/69/54 58/70/54
f 51/57/55 50/56/55 58/70/55 59/71/55
f 52/58/56 51/57/56 59/71/56 60/63/56
f 58/70/57 57/69/57 65/72/57 66/73/57
f 59/71/58 58/70/58 66/73/58 67/74/58
f 60/63/59 59/71/59 67/74/59 68/75/59
f 61/64/60 60/63/60 68/75/60 69/76/60
f 54/66/61 45/77/61 62/78/61
f 55/67/62 54/66/62 62/78/62 63/79/62
f 56/68/63 55/67/63 63/79/63 64/80/63
f 57/69/64 56/68/64 64/80/64 65/72/64
f 63/79/65 62/78/65 70/81/65 71/82/65
f 64/80/66 63/79/66 71/82/66 72/83/66
f 65/72/67 64/80/67 72/83/67 73/84/67
f 66/73/68 65/72/68 73/84/68 74/85/68
f 67/74/69 66/73/69 74/85/69 75/86/69
f 68/75/70 67/74/70 75/86/70 76/87/70
f 69/76/71 68/75/71 76/87/71 77/88/71
f 62/78/72 45/89/72 70/81/72
f 75/86/73 74/85/73 82/90/73 83/91/73
f 76/87/74 75/86/74 83/91/74 84/92/74
f 77/88/75 76/87/75 84/92/75 85/93/75
f 70/81/76 45/94/76 78/95/76
f 71/82/77 70/81/77 78/95/77 79/96/77
f 72/83/78 71/82/78 79/96/78 80/97/78
f 73/84/79 72/83/79 80/97/79 81/98/79
f 74/85/80 73/84/80 81/98/80 82/90/80
f 79/96/81 78/95/81 86/99/81 87/100/81
f 80/97/82 79/96/82 87/100/82 88/101/82
f 81/98/83 80/97/83 88/101/83 89/102/83
f 82/90/84 81/98/84 89/102/84 90/103/84
f 83/91/85 82/90/85 90/103/85 91/104/85
f 84/92/86 83/91/86 91/104/86 92/105/86
f 85/93/87 84/92/87 92/105/87 93/106/87
f 78/95/88 45/107/88 86/99/88
f 91/104/89 90/103/89 98/108/89 99/109/89
f 92/105/90 91/104/90 99/109/90 100/110/90
f 93/106/91 92/105/91 100/110/91 101/111/91
f 86/99/92 45/112/92 94/113/92
f 87/100/93 86/99/93 94/113/93 95/114/93
f 88/101/94 87/100/94 95/114/94 96/115/94
f 89/102/95 88/101/95 96/115/95 97/116/95
f 90/103/96 89/102/96 97/116/96 98/108/96
f 96/115/97 95/114/97 103/117/97 104/118/97
f 97/116/98 96/115/98 104/118/98 105/119/98
f 98/108/99 97/116/99 105/119/99 106/120/99
f 99/109/100 98/108/100 106/120/100 107/121/100
f 100/110/101 99/109/101 107/121/101 108/122/101
f 101/111/102 100/110/102 108/122/102 109/123/102
f 94/113/103 45/124/103 102/125/103
f 95/114/104 94/113/104 102/125/104 103/117/104
f 108/122/105 107/121/105 115/126/105 116/127/105
f 109/123/106 108/122/106 116/127/106 117/128/106
f 102/125/107 45/129/107 110/130/107
f 103/117/108 102/125/108 110/130/108 111/131/108
f 104/118/109 103/117/109 111/131/109 112/132/109
f 105/119/110 104/118/110 112/132/110 113/133/110
f 106/120/111 105/119/111 113/133/111 114/134/111
f 107/121/112 106/120/112 114/134/112 115/126/112
f 112/132/113 111/131/113 119/135/113 120/136/113
f 113/133/114 112/132/114 120/136/114 121/137/114
f 114/134/115 113/133/115 121/137/115 122/138/115
f 115/126/116 114/134/116 122/138/116 123/139/116
f 116/127/117 115/126/117 123/139/117 124/140/117
f 117/128/118 116/127/118 124/140/118 125/141/118
f 110/130/119 45/142/119 118/143/119
f 111/131/120 110/130/120 118/143/120 119/135/120
f 124/140/121 123/139/121 131/144/121 132/145/121
f 125/141/122 124/140/122 132/145/122 133/146/122
f 118/143/123 45/147/123 126/148/123
f 119/135/124 118/143/124 126/148/124 127/149/124
f 120/136/125 119/135/125 127/149/125 128/150/125
f 121/137/126 120/136/126 128/150/126 129/151/126
f 122/138/127 121/137/127 129/151/127 130/152/127
f 123/139/128 122/138/128 130/152/128 131/144/128
f 129/151/129 128/150/129 136/153/129 137/154/129
f 130/152/130 129/151/130 137/154/130 138/155/130
f 131/144/131 130/152/131 138/155/131 139/156/131
f 132/145/132 131/144/132 139/156/132 140/157/132
f 133/146/133 132/145/133 140/157/133 141/158/133
f 126/148/134 45/159/134 134/160/134
f 127/149/135 126/148/135 134/160/135 135/161/135
f 128/150/136 127/149/136 135/161/136 136/153/136
f 141/158/137 140/157/137 148/162/137 149/163/137
f 134/160/138 45/164/138 142/165/138
f 135/161/139 134/160/139 142/165/139 143/166/139
f 136/153/140 135/161/140 143/166/140 144/167/140
f 137/154/141 136/153/141 144/167/141 145/168/141
f 138/155/142 137/154/142 145/168/142 146/169/142
f 139/156/143 138/155/143 146/169/143 147/170/143
f 140/157/144 139/156/144 147/170/144 148/162/144
f 146/169/145 145/168/145 153/171/145 154/172/145
f 147/170/146 146/169/146 154/172/146 155/173/146
f 148/162/147 147/170/147 155/173/147 156/174/147
f 149/163/148 148/162/148 156/174/148 157/175/148
f 142/165/149 45/176/149 150/177/149
f 143/166/150 142/165/150 150/177/150 151/178/150
f 144/167/151 143/166/151 151/178/151 152/179/151
f 145/168/152 144/167/152 152/179/152 153/171/152
f 150/177/153 45/180/153 158/181/153
f 151/178/154 150/177/154 158/181/154 159/182/154
f 152/179/155 151/178/155 159/182/155 160/183/155
f 153/171/156 152/179/156 160/183/156 161/184/156
f 154/172/157 153/171/157 161/184/157 162/185/157
f 155/173/158 154/172/158 162/185/158 163/186/158
f 156/174/159 155/173/159 163/186/159 164/187/159
f 157/175/160 156/174/160 164/187/160 165/188/160
f 162/185/161 161/184/161 169/189/161 170/190/161
f 163/186/162 162/185/162 170/190/162 171/191/162
f 164/187/163 163/186/163 171/191/163 172/192/163
f 165/188/164 164/187/164 172/192/164 173/193/164
f 158/181/165 45/194/165 166/195/165
f 159/182/166 158/181/166 166/195/166 167/196/166
f 160/183/167 159/182/167 167/196/167 168/197/167
f 161/184/168 160/183/168 168/197/168 169/189/168
f 167/196/169 166/195/169 174/198/169 175/199/169
f 168/197/170 167/196/170 175/199/170 176/200/170
f 169/189/171 168/197/171 176/200/171 177/201/171
f 170/190/172 169/189/172 177/201/172 178/202/172
f 171/191/173 170/190/173 178/202/173 179/203/173
f 172/192/174 171/191/174 179/203/174 180/204/174
f 173/193/175 172/192/175 180/204/175 181/205/175
f 166/195/176 45/206/176 174/198/176
f 179/203/177 178/202/177 186/207/177 187/208/177
f 180/204/178 179/203/178 187/208/178 188/209/178
f 181/205/179 180/204/179 188/209/179 189/210/179
f 174/198/180 45/211/180 182/212/180
f 175/199/181 174/198/181 182/212/181 183/213/181
f 176/200/182 175/199/182 183/213/182 184/214/182
f 177/201/183 176/200/183 184/214/183 185/215/183
f 178/202/184 177/201/184 185/215/184 186/207/184
f 183/213/185 182/212/185 190/216/185 191/217/185
f 184/214/186 183/213/186 191/217/186 192/218/186
f 185/215/187 184/214/187 192/218/187 193/219/187
f 186/207/188 185/215/188 193/219/188 194/220/188
f 187/208/189 186/207/189 194/220/189 195/221/189
f 188/209/190 187/208/190 195/221/190 196/222/190
f 189/210/191 188/209/191 196/222/191 197/223/191
f 182/212/192 45/224/192 190/216/192
f 195/225/193 194/226/193 202/227/193 203/228/193
f 196/229/194 195/225/194 203/228/194 204/230/194
f 197/231/195 196/229/195 204/230/195 205/232/195
f 190/233/196 45/234/196 198/235/196
f 191/236/197 190/233/197 198/235/197 199/237/197
f 192/238/198 191/236/198 199/237/198 200/239/198
f 193/240/199 192/238/199 200/239/199 201/241/199
f 194/226/200 193/240/200 201/241/200 202/227/200
f 200/239/201 199/237/201 207/242/201 208/243/201
f 201/241/202 200/239/202 208/243/202 209/244/202
f 202/227/203 201/241/203 209/244/203 210/245/203
f 203/228/204 202/227/204 210/245/204 211/246/204
f 204/230/205 203/228/205 211/246/205 212/247/205
f 205/232/206 204/230/206 212/247/206 213/248/206
f 198/235/207 45/249/207 206/250/207
f 199/237/208 198/235/208 206/250/208 207/242/208
f 212/247/209 211/246/209 219/251/209 220/252/209
f 213/248/210 212/247/210 220/252/210 221/253/210
f 206/250/211 45/254/211 214/255/211
f 207/242/212 206/250/212 214/255/212 215/256/212
f 208/243/213 207/242/213 215/256/213 216/257/213
f 209/244/214 208/243/214 216/257/214 217/258/214
f 210/245/215 209/244/215 217/258/215 218/259/215
f 211/246/216 210/245/216 218/259/216 219/251/216
f 217/258/217 216/257/217 224/260/217 225/261/217
f 218/259/218 217/258/218 225/261/218 226/262/218
f 219/251/219 218/259/219 226/262/219 227/263/219
f 220/252/220 219/251/220 227/263/220 228/264/220
f 221/253/221 220/252/221 228/264/221 229/265/221
f 214/255/222 45/266/222 222/267/222
f 215/256/223 214/255/223 222/267/223 223/268/223
f 216/257/224 215/256/224 223/268/224 224/260/224
f 229/265/225 228/264/225 236/269/225 237/270/225
f 222/267/226 45/271/226 230/272/226
f 223/268/227 222/267/227 230/272/227 231/273/227
f 224/260/228 223/268/228 231/273/228 232/274/228
f 225/261/229 224/260/229 232/274/229 233/275/229
f 226/262/230 225/261/230 233/275/230 234/276/230
f 227/263/231 226/262/231 234/276/231 235/277/231
f 228/264/232 227/263/232 235/277/232 236/269/232
f 233/275/233 232/274/233 240/278/233 241/279/233
f 234/276/234 233/275/234 241/279/234 242/280/234
f 235/277/235 234/276/235 242/280/235 243/281/235
f 236/269/236 235/277/236 243/281/236 244/282/236
f 237/270/237 236/269/237 244/282/237 245/283/237
f 230/272/238 45/284/238 238/285/238
f 231/273/239 230/272/239 238/285/239 239/286/239
f 232/274/240 231/273/240 239/286/240 240/278/240
f 245/283/241 244/282/241 252/287/241 253/288/241
f 238/285/242 45/289/242 246/290/242
f 239/286/243 238/285/243 246/290/243 247/291/243
f 240/278/244 239/286/244 247/291/244 248/292/244
f 241/279/245 240/278/245 248/292/245 249/293/245
f 242/280/246 241/279/246 249/293/246 250/294/246
f 243/281/247 242/280/247 250/294/247 251/295/247
f 244/282/248 243/281/248 251/295/248 252/287/248
f 250/294/249 249/293/249 256/1/249 2/5/249
f 251/295/250 250/294/250 2/5/250 257/7/250
f 252/287/251 251/295/251 257/7/251 3/9/251
f 253/288/252 252/287/252 3/9/252 4/11/252
f 246/290/253 45/296/253 254/13/253
f 247/291/254 246/290/254 254/13/254 255/16/254
f 248/292/255 247/291/255 255/16/255 1/2/255
f 249/293/256 248/292/256 1/2/256 256/1/256
o Sphere.001
v -0.012252 -2.001997 -1.004923
v -0.012252 -2.197087 -0.985709
v -0.012252 -2.557567 -0.836393
v 0.182838 -2.001997 -0.985709
v 0.179090 -2.197087 -0.966863
v 0.167988 -2.384680 -0.911051
v 0.149960 -2.557567 -0.820417
v 0.125698 -2.709104 -0.698443
v 0.096134 -2.833467 -0.549819
v 0.062406 -2.925876 -0.380254
v 0.025808 -2.982782 -0.196265
v 0.370431 -2.001997 -0.928803
v 0.363078 -2.197087 -0.911051
v 0.341301 -2.384680 -0.858477
v 0.305938 -2.557567 -0.773101
v 0.258346 -2.709104 -0.658205
v 0.200356 -2.833467 -0.518203
v 0.134195 -2.925876 -0.358477
v 0.062406 -2.982782 -0.185163
v 0.543318 -2.001997 -0.836393
v 0.532643 -2.197087 -0.820417
v 0.501028 -2.384680 -0.773101
v 0.449688 -2.557567 -0.696265
v 0.380596 -2.709104 -0.592861
v 0.296406 -2.833467 -0.466863
v 0.200356 -2.925876 -0.323113
v 0.096134 -2.982782 -0.167135
v 0.694855 -2.001997 -0.712030
v 0.681268 -2.197087 -0.698443
v 0.641029 -2.384680 -0.658205
v 0.575686 -2.557567 -0.592861
v 0.487748 -2.709104 -0.504924
v 0.380595 -2.833467 -0.397771
v 0.258346 -2.925876 -0.275522
v 0.125698 -2.982782 -0.142873
v 0.819218 -2.001997 -0.560493
v 0.803241 -2.197087 -0.549818
v 0.755926 -2.384680 -0.518203
v 0.679090 -2.557567 -0.466863
v 0.575686 -2.709104 -0.397771
v 0.449688 -2.833467 -0.313582
v 0.305938 -2.925876 -0.217531
v 0.149960 -2.982782 -0.113310
v 0.911627 -2.001997 -0.387607
v 0.893875 -2.197087 -0.380254
v 0.841301 -2.384680 -0.358477
v 0.755926 -2.557567 -0.323113
v 0.641029 -2.709104 -0.275522
v 0.501028 -2.833467 -0.217531
v 0.341301 -2.925876 -0.151370
v 0.167988 -2.982782 -0.079581
v 0.968533 -2.001997 -0.200014
v 0.949688 -2.197087 -0.196265
v 0.893875 -2.384680 -0.185164
v 0.803241 -2.557567 -0.167135
v 0.681268 -2.709104 -0.142873
v 0.532643 -2.833467 -0.113310
v 0.363078 -2.925876 -0.079581
v 0.179090 -2.982782 -0.042984
v 0.987748 -2.001997 -0.004923
v 0.968533 -2.197087 -0.004923
v 0.911627 -2.384680 -0.004924
v 0.819217 -2.557567 -0.004923
v 0.694855 -2.709104 -0.004924
v 0.543318 -2.833467 -0.004923
v 0.370431 -2.925876 -0.004923
v 0.182838 -2.982782 -0.004924
v 0.968533 -2.001997 0.190167
v 0.949688 -2.197087 0.186418
v 0.893875 -2.384680 0.175316
v 0.803241 -2.557567 0.157288
v 0.681268 -2.709104 0.133026
v 0.532643 -2.833467 0.103463
v 0.363078 -2.925876 0.069734
v 0.179090 -2.982782 0.033137
v 0.911627 -2.001997 0.377760
v 0.893875 -2.197087 0.370407
v 0.841301 -2.384680 0.348630
v 0.755926 -2.557567 0.313266
v 0.641029 -2.709104 0.265674
v 0.501028 -2.833467 0.207684
v 0.341301 -2.925876 0.141523
v 0.167988 -2.982782 0.069734
v 0.819217 -2.001997 0.550647
v 0.803241 -2.197087 0.539972
v 0.755926 -2.384680 0.508356
v 0.679089 -2.557567 0.457016
v 0.575686 -2.709104 0.387924
v 0.449688 -2.833467 0.303735
v 0.305938 -2.925876 0.207684
v 0.149960 -2.982782 0.103463
v 0.694854 -2.001997 0.702183
v 0.681268 -2.197087 0.688596
v 0.641029 -2.384680 0.648358
v 0.575686 -2.557567 0.583014
v 0.487748 -2.709104 0.495076
v 0.380595 -2.833467 0.387924
v 0.258346 -2.925876 0.265675
v 0.125698 -2.982782 0.133026
v 0.543318 -2.001997 0.826546
v 0.532643 -2.197087 0.810570
v 0.501028 -2.384680 0.763254
v 0.449688 -2.557567 0.686418
v 0.380595 -2.709104 0.583014
v 0.296406 -2.833467 0.457016
v 0.200355 -2.925876 0.313266
v 0.096134 -2.982782 0.157288
v 0.370431 -2.001997 0.918956
v 0.363078 -2.197087 0.901204
v 0.341301 -2.384680 0.848630
v 0.305937 -2.557567 0.763254
v 0.258346 -2.709104 0.648358
v 0.200355 -2.833467 0.508356
v 0.134195 -2.925876 0.348630
v 0.062406 -2.982782 0.175316
v 0.182838 -2.001997 0.975861
v 0.179090 -2.197087 0.957016
v 0.167988 -2.384680 0.901204
v 0.149960 -2.557567 0.810569
v 0.125698 -2.709104 0.688596
v 0.096134 -2.833467 0.539971
v 0.062406 -2.925876 0.370407
v 0.025808 -2.982782 0.186418
v -0.012252 -2.001997 0.995076
v -0.012252 -2.197087 0.975861
v -0.012252 -2.384680 0.918956
v -0.012252 -2.557567 0.826546
v -0.012252 -2.709104 0.702183
v -0.012252 -2.833467 0.550646
v -0.012252 -2.925876 0.377760
v -0.012252 -2.982782 0.190167
v -0.207343 -1.997073 0.980785
v -0.203594 -2.192163 0.961940
v -0.192492 -2.379756 0.906127
v -0.174464 -2.552643 0.815493
v -0.150202 -2.704180 0.693520
v -0.120638 -2.828543 0.544895
v -0.086910 -2.920953 0.375330
v -0.050312 -2.977858 0.191342
v -0.394935 -1.997073 0.923879
v -0.387582 -2.192163 0.906127
v -0.365805 -2.379756 0.853553
v -0.330442 -2.552643 0.768178
v -0.282850 -2.704180 0.653282
v -0.224859 -2.828543 0.513280
v -0.158699 -2.920953 0.353554
v -0.086910 -2.977858 0.180240
v -0.567822 -1.997073 0.831469
v -0.557147 -2.192163 0.815493
v -0.525532 -2.379756 0.768178
v -0.474192 -2.552643 0.691342
v -0.405099 -2.704180 0.587938
v -0.320910 -2.828543 0.461940
v -0.224859 -2.920953 0.318190
v -0.120638 -2.977858 0.162212
v -0.719358 -1.997073 0.707106
v -0.705772 -2.192163 0.693520
v -0.665533 -2.379756 0.653282
v -0.600190 -2.552643 0.587938
v -0.512252 -2.704180 0.500000
v -0.405099 -2.828543 0.392847
v -0.282850 -2.920953 0.270598
v -0.150202 -2.977858 0.137950
v -0.012252 -2.997073 0.000000
v -0.843721 -1.997073 0.555570
v -0.827745 -2.192163 0.544895
v -0.780429 -2.379756 0.513280
v -0.703593 -2.552643 0.461940
v -0.600190 -2.704180 0.392848
v -0.474191 -2.828543 0.308658
v -0.330442 -2.920953 0.212608
v -0.174464 -2.977858 0.108387
v -0.936131 -1.997073 0.382683
v -0.918379 -2.192163 0.375330
v -0.865805 -2.379756 0.353554
v -0.780429 -2.552643 0.318190
v -0.665533 -2.704180 0.270598
v -0.525532 -2.828543 0.212608
v -0.365805 -2.920953 0.146447
v -0.192492 -2.977858 0.074658
v -0.993036 -1.997073 0.195090
v -0.974191 -2.192163 0.191342
v -0.918379 -2.379756 0.180240
v -0.827745 -2.552643 0.162212
v -0.705772 -2.704180 0.137950
v -0.557147 -2.828543 0.108386
v -0.387582 -2.920953 0.074658
v -0.203594 -2.977858 0.038060
v -1.012251 -1.997073 -0.000000
v -0.993037 -2.192163 0.000000
v -0.936131 -2.379756 0.000000
v -0.843721 -2.552643 0.000000
v -0.719359 -2.704180 0.000000
v -0.567822 -2.828543 0.000000
v -0.394935 -2.920953 0.000000
v -0.207342 -2.977858 0.000000
v -0.993036 -1.997073 -0.195090
v -0.974191 -2.192163 -0.191342
v -0.918379 -2.379756 -0.180240
v -0.827745 -2.552643 -0.162211
v -0.705772 -2.704180 -0.137949
v -0.557147 -2.828543 -0.108386
v -0.387582 -2.920953 -0.074658
v -0.203594 -2.977858 -0.038060
v -0.936130 -1.997073 -0.382683
v -0.918379 -2.192163 -0.375330
v -0.865805 -2.379756 -0.353553
v -0.780429 -2.552643 -0.318189
v -0.665533 -2.704180 -0.270598
v -0.525531 -2.828543 -0.212607
v -0.365805 -2.920953 -0.146446
v -0.192492 -2.977858 -0.074658
v -0.843720 -1.997073 -0.555570
v -0.827745 -2.192163 -0.544895
v -0.780429 -2.379756 -0.513279
v -0.703593 -2.552643 -0.461939
v -0.600190 -2.704180 -0.392847
v -0.474191 -2.828543 -0.308658
v -0.330441 -2.920953 -0.212607
v -0.174463 -2.977858 -0.108386
v -0.719358 -1.997073 -0.707106
v -0.705771 -2.192163 -0.693519
v -0.665533 -2.379756 -0.653281
v -0.600189 -2.552643 -0.587937
v -0.512252 -2.704180 -0.500000
v -0.405099 -2.828543 -0.392847
v -0.282850 -2.920953 -0.270598
v -0.150202 -2.977858 -0.137949
v -0.567821 -1.997073 -0.831469
v -0.557147 -2.192163 -0.815493
v -0.525532 -2.379756 -0.768177
v -0.474191 -2.552643 -0.691341
v -0.405099 -2.704180 -0.587937
v -0.320910 -2.828543 -0.461939
v -0.224859 -2.920953 -0.318189
v -0.120638 -2.977858 -0.162211
v -0.394935 -1.997073 -0.923878
v -0.387582 -2.192163 -0.906127
v -0.365805 -2.379756 -0.853553
v -0.330441 -2.552643 -0.768177
v -0.282850 -2.704180 -0.653281
v -0.224859 -2.828543 -0.513279
v -0.158698 -2.920953 -0.353553
v -0.086910 -2.977858 -0.180239
v -0.207342 -1.997073 -0.980784
v -0.203593 -2.192163 -0.961939
v -0.192492 -2.379756 -0.906127
v -0.174463 -2.552643 -0.815492
v -0.150202 -2.704180 -0.693519
v -0.120638 -2.828543 -0.544894
v -0.086910 -2.920953 -0.375330
v -0.050312 -2.977858 -0.191341
v -0.012252 -2.384680 -0.928802
v -0.012252 -2.709104 -0.712030
v -0.012252 -2.833467 -0.560493
v -0.012252 -2.925876 -0.387607
v -0.012252 -2.982782 -0.200014
vn 0.0938 -0.2890 -0.9527
vn 0.0865 -0.4696 -0.8786
vn 0.0759 -0.6326 -0.7708
vn 0.0624 -0.7715 -0.6332
vn 0.0464 -0.8810 -0.4709
vn 0.0286 -0.9565 -0.2902
vn 0.0070 -0.9974 -0.0713
vn 0.0975 -0.0975 -0.9904
vn 0.0208 -0.9974 -0.0686
vn 0.2889 -0.0975 -0.9524
vn 0.2779 -0.2890 -0.9161
vn 0.2563 -0.4696 -0.8448
vn 0.2248 -0.6326 -0.7412
vn 0.1847 -0.7715 -0.6088
vn 0.1374 -0.8810 -0.4528
vn 0.0846 -0.9565 -0.2790
vn 0.2999 -0.7715 -0.5611
vn 0.2231 -0.8810 -0.4173
vn 0.1374 -0.9565 -0.2571
vn 0.0338 -0.9974 -0.0633
vn 0.4691 -0.0975 -0.8777
vn 0.4513 -0.2890 -0.8443
vn 0.4162 -0.4696 -0.7786
vn 0.3651 -0.6326 -0.6831
vn 0.6314 -0.0975 -0.7693
vn 0.6073 -0.2890 -0.7400
vn 0.5601 -0.4696 -0.6825
vn 0.4913 -0.6326 -0.5987
vn 0.4036 -0.7715 -0.4918
vn 0.3002 -0.8810 -0.3658
vn 0.1850 -0.9565 -0.2254
vn 0.0457 -0.9974 -0.0557
vn 0.4918 -0.7715 -0.4036
vn 0.3658 -0.8810 -0.3002
vn 0.2254 -0.9565 -0.1850
vn 0.0559 -0.9974 -0.0458
vn 0.7693 -0.0975 -0.6314
vn 0.7400 -0.2890 -0.6073
vn 0.6825 -0.4696 -0.5601
vn 0.5987 -0.6326 -0.4913
vn 0.8443 -0.2890 -0.4513
vn 0.7786 -0.4696 -0.4162
vn 0.6831 -0.6326 -0.3651
vn 0.5611 -0.7715 -0.2999
vn 0.4173 -0.8810 -0.2230
vn 0.2571 -0.9565 -0.1374
vn 0.0640 -0.9974 -0.0342
vn 0.8777 -0.0975 -0.4691
vn 0.4528 -0.8810 -0.1374
vn 0.2790 -0.9565 -0.0846
vn 0.0697 -0.9973 -0.0212
vn 0.9524 -0.0975 -0.2889
vn 0.9161 -0.2890 -0.2779
vn 0.8448 -0.4696 -0.2563
vn 0.7412 -0.6326 -0.2248
vn 0.6088 -0.7715 -0.1847
vn 0.9527 -0.2890 -0.0938
vn 0.8786 -0.4696 -0.0865
vn 0.7708 -0.6326 -0.0759
vn 0.6332 -0.7715 -0.0624
vn 0.4709 -0.8810 -0.0464
vn 0.2902 -0.9565 -0.0286
vn 0.0729 -0.9973 -0.0072
vn 0.9904 -0.0975 -0.0975
vn 0.4709 -0.8810 0.0464
vn 0.2902 -0.9565 0.0286
vn 0.0732 -0.9973 0.0072
vn 0.9904 -0.0975 0.0975
vn 0.9527 -0.2890 0.0938
vn 0.8786 -0.4696 0.0865
vn 0.7708 -0.6326 0.0759
vn 0.6332 -0.7715 0.0624
vn 0.8448 -0.4696 0.2563
vn 0.7412 -0.6326 0.2248
vn 0.6088 -0.7715 0.1847
vn 0.4528 -0.8810 0.1374
vn 0.2790 -0.9565 0.0846
vn 0.0708 -0.9973 0.0215
vn 0.9524 -0.0975 0.2889
vn 0.9161 -0.2890 0.2779
vn 0.2571 -0.9565 0.1374
vn 0.0655 -0.9972 0.0350
vn 0.8777 -0.0975 0.4691
vn 0.8443 -0.2890 0.4513
vn 0.7786 -0.4696 0.4162
vn 0.6831 -0.6326 0.3651
vn 0.5611 -0.7715 0.2999
vn 0.4173 -0.8810 0.2231
vn 0.5987 -0.6326 0.4913
vn 0.4918 -0.7715 0.4036
vn 0.3658 -0.8810 0.3002
vn 0.2254 -0.9565 0.1850
vn 0.0577 -0.9972 0.0473
vn 0.7693 -0.0975 0.6314
vn 0.7400 -0.2890 0.6073
vn 0.6825 -0.4696 0.5601
vn 0.0475 -0.9972 0.0579
vn 0.6314 -0.0975 0.7693
vn 0.6073 -0.2890 0.7400
vn 0.5601 -0.4696 0.6825
vn 0.4913 -0.6326 0.5987
vn 0.4036 -0.7715 0.4918
vn 0.3002 -0.8810 0.3658
vn 0.1850 -0.9565 0.2254
vn 0.3651 -0.6326 0.6831
vn 0.2999 -0.7715 0.5611
vn 0.2230 -0.8810 0.4173
vn 0.1374 -0.9565 0.2571
vn 0.0354 -0.9972 0.0662
vn 0.4691 -0.0975 0.8777
vn 0.4513 -0.2890 0.8443
vn 0.4162 -0.4696 0.7786
vn 0.0218 -0.9972 0.0720
vn 0.2889 -0.0975 0.9524
vn 0.2779 -0.2890 0.9161
vn 0.2563 -0.4696 0.8448
vn 0.2248 -0.6326 0.7412
vn 0.1847 -0.7715 0.6088
vn 0.1374 -0.8810 0.4528
vn 0.0846 -0.9565 0.2790
vn 0.0624 -0.7715 0.6332
vn 0.0464 -0.8810 0.4709
vn 0.0286 -0.9565 0.2902
vn 0.0074 -0.9972 0.0749
vn 0.0975 -0.0975 0.9904
vn 0.0938 -0.2890 0.9527
vn 0.0865 -0.4696 0.8786
vn 0.0759 -0.6326 0.7708
vn -0.0749 -0.0975 0.9924
vn -0.0764 -0.2890 0.9543
vn -0.0749 -0.4696 0.8797
vn -0.0714 -0.6326 0.7712
vn -0.0679 -0.7715 0.6326
vn -0.0683 -0.8808 0.4686
vn -0.0866 -0.9549 0.2840
vn -0.1257 -0.9893 0.0743
vn -0.1847 -0.7715 0.6088
vn -0.1374 -0.8810 0.4528
vn -0.0846 -0.9565 0.2790
vn -0.0286 -0.9951 0.0942
vn -0.2889 -0.0975 0.9524
vn -0.2779 -0.2890 0.9161
vn -0.2563 -0.4696 0.8448
vn -0.2248 -0.6326 0.7412
vn -0.4513 -0.2890 0.8443
vn -0.4162 -0.4696 0.7786
vn -0.3651 -0.6326 0.6831
vn -0.2999 -0.7715 0.5611
vn -0.2230 -0.8810 0.4173
vn -0.1374 -0.9565 0.2571
vn -0.0464 -0.9951 0.0869
vn -0.4691 -0.0975 0.8777
vn -0.3002 -0.8810 0.3658
vn -0.1850 -0.9565 0.2254
vn -0.0625 -0.9951 0.0761
vn -0.6314 -0.0975 0.7693
vn -0.6073 -0.2890 0.7400
vn -0.5601 -0.4696 0.6825
vn -0.4913 -0.6326 0.5987
vn -0.4036 -0.7715 0.4918
vn -0.6825 -0.4696 0.5601
vn -0.5987 -0.6326 0.4913
vn -0.4918 -0.7715 0.4036
vn -0.3658 -0.8810 0.3002
vn -0.2254 -0.9566 0.1850
vn -0.0761 -0.9951 0.0625
vn -0.7693 -0.0975 0.6314
vn -0.7400 -0.2890 0.6073
vn -0.2571 -0.9565 0.1374
vn -0.0869 -0.9951 0.0464
vn -0.8777 -0.0975 0.4691
vn -0.8443 -0.2890 0.4513
vn -0.7786 -0.4696 0.4162
vn -0.6831 -0.6326 0.3651
vn -0.5611 -0.7715 0.2999
vn -0.4173 -0.8810 0.2230
vn -0.8448 -0.4696 0.2563
vn -0.7412 -0.6326 0.2248
vn -0.6088 -0.7715 0.1847
vn -0.4528 -0.8810 0.1374
vn -0.2790 -0.9565 0.0846
vn -0.0942 -0.9951 0.0286
vn -0.9524 -0.0975 0.2889
vn -0.9161 -0.2890 0.2779
vn -0.2902 -0.9565 0.0286
vn -0.0980 -0.9951 0.0097
vn -0.9904 -0.0975 0.0975
vn -0.9527 -0.2890 0.0938
vn -0.8786 -0.4696 0.0865
vn -0.7708 -0.6326 0.0759
vn -0.6332 -0.7715 0.0624
vn -0.4709 -0.8810 0.0464
vn -0.7708 -0.6326 -0.0759
vn -0.6332 -0.7715 -0.0624
vn -0.4709 -0.8810 -0.0464
vn -0.2902 -0.9565 -0.0286
vn -0.0980 -0.9951 -0.0097
vn -0.9904 -0.0975 -0.0976
vn -0.9527 -0.2890 -0.0938
vn -0.8786 -0.4696 -0.0865
vn -0.0942 -0.9951 -0.0286
vn -0.9524 -0.0975 -0.2889
vn -0.9161 -0.2890 -0.2779
vn -0.8448 -0.4696 -0.2563
vn -0.7412 -0.6326 -0.2248
vn -0.6088 -0.7715 -0.1847
vn -0.4528 -0.8810 -0.1374
vn -0.2790 -0.9565 -0.0846
vn -0.6831 -0.6326 -0.3651
vn -0.5611 -0.7715 -0.2999
vn -0.4173 -0.8810 -0.2230
vn -0.2571 -0.9565 -0.1374
vn -0.0869 -0.9951 -0.0464
vn -0.8777 -0.0975 -0.4691
vn -0.8443 -0.2890 -0.4513
vn -0.7786 -0.4696 -0.4162
vn -0.0761 -0.9951 -0.0625
vn -0.7693 -0.0975 -0.6314
vn -0.7400 -0.2890 -0.6073
vn -0.6825 -0.4696 -0.5601
vn -0.5987 -0.6326 -0.4913
vn -0.4918 -0.7715 -0.4036
vn -0.3658 -0.8810 -0.3002
vn -0.2254 -0.9565 -0.1850
vn -0.4036 -0.7715 -0.4918
vn -0.3002 -0.8810 -0.3658
vn -0.1850 -0.9565 -0.2254
vn -0.0625 -0.9951 -0.0761
vn -0.6314 -0.0975 -0.7693
vn -0.6073 -0.2890 -0.7400
vn -0.5601 -0.4696 -0.6825
vn -0.4913 -0.6326 -0.5987
vn -0.4513 -0.2890 -0.8443
vn -0.4162 -0.4696 -0.7786
vn -0.3651 -0.6326 -0.6831
vn -0.2999 -0.7715 -0.5611
vn -0.2231 -0.8810 -0.4173
vn -0.1374 -0.9565 -0.2571
vn -0.0464 -0.9951 -0.0869
vn -0.4691 -0.0975 -0.8777
vn -0.1374 -0.8810 -0.4528
vn -0.0846 -0.9565 -0.2790
vn -0.0286 -0.9951 -0.0942
vn -0.2889 -0.0975 -0.9524
vn -0.2779 -0.2890 -0.9161
vn -0.2563 -0.4696 -0.8448
vn -0.2248 -0.6326 -0.7412
vn -0.1847 -0.7715 -0.6088
vn -0.1263 -0.2889 -0.9490
vn -0.1247 -0.4693 -0.8742
vn -0.1212 -0.6319 -0.7655
vn -0.1176 -0.7703 -0.6267
vn -0.1177 -0.8787 -0.4626
vn -0.1348 -0.9511 -0.2780
vn -0.1438 -0.9871 -0.0705
vn -0.1249 -0.0975 -0.9874
vt 0.750000 0.375000
vt 0.750000 0.437500
vt 0.718750 0.437500
vt 0.718750 0.375000
vt 0.750000 0.312500
vt 0.718750 0.312500
vt 0.750000 0.250000
vt 0.718750 0.250000
vt 0.750000 0.187500
vt 0.718750 0.187500
vt 0.750000 0.125000
vt 0.718750 0.125000
vt 0.750000 0.062500
vt 0.718750 0.062500
vt 0.734375 0.000000
vt 0.750000 0.500000
vt 0.718750 0.500000
vt 0.703125 0.000000
vt 0.687500 0.062500
vt 0.687500 0.500000
vt 0.687500 0.437500
vt 0.687500 0.375000
vt 0.687500 0.312500
vt 0.687500 0.250000
vt 0.687500 0.187500
vt 0.687500 0.125000
vt 0.656250 0.250000
vt 0.656250 0.187500
vt 0.656250 0.125000
vt 0.656250 0.062500
vt 0.671875 0.000000
vt 0.656250 0.500000
vt 0.656250 0.437500
vt 0.656250 0.375000
vt 0.656250 0.312500
vt 0.625000 0.500000
vt 0.625000 0.437500
vt 0.625000 0.375000
vt 0.625000 0.312500
vt 0.625000 0.250000
vt 0.625000 0.187500
vt 0.625000 0.125000
vt 0.625000 0.062500
vt 0.640625 0.000000
vt 0.593750 0.250000
vt 0.593750 0.187500
vt 0.593750 0.125000
vt 0.593750 0.062500
vt 0.609375 0.000000
vt 0.593750 0.500000
vt 0.593750 0.437500
vt 0.593750 0.375000
vt 0.593750 0.312500
vt 0.562500 0.437500
vt 0.562500 0.375000
vt 0.562500 0.312500
vt 0.562500 0.250000
vt 0.562500 0.187500
vt 0.562500 0.125000
vt 0.562500 0.062500
vt 0.578125 0.000000
vt 0.562500 0.500000
vt 0.531250 0.187500
vt 0.531250 0.125000
vt 0.531250 0.062500
vt 0.546875 0.000000
vt 0.531250 0.500000
vt 0.531250 0.437500
vt 0.531250 0.375000
vt 0.531250 0.312500
vt 0.531250 0.250000
vt 0.500000 0.437500
vt 0.500000 0.375000
vt 0.500000 0.312500
vt 0.500000 0.250000
vt 0.500000 0.187500
vt 0.500000 0.125000
vt 0.500000 0.062500
vt 0.515625 0.000000
vt 0.500000 0.500000
vt 0.468750 0.187500
vt 0.468750 0.125000
vt 0.468750 0.062500
vt 0.484375 0.000000
vt 0.468750 0.500000
vt 0.468750 0.437500
vt 0.468750 0.375000
vt 0.468750 0.312500
vt 0.468750 0.250000
vt 0.437500 0.375000
vt 0.437500 0.312500
vt 0.437500 0.250000
vt 0.437500 0.187500
vt 0.437500 0.125000
vt 0.437500 0.062500
vt 0.453125 0.000000
vt 0.437500 0.500000
vt 0.437500 0.437500
vt 0.406250 0.125000
vt 0.406250 0.062500
vt 0.421875 0.000000
vt 0.406250 0.500000
vt 0.406250 0.437500
vt 0.406250 0.375000
vt 0.406250 0.312500
vt 0.406250 0.250000
vt 0.406250 0.187500
vt 0.375000 0.312500
vt 0.375000 0.250000
vt 0.375000 0.187500
vt 0.375000 0.125000
vt 0.375000 0.062500
vt 0.390625 0.000000
vt 0.375000 0.500000
vt 0.375000 0.437500
vt 0.375000 0.375000
vt 0.359375 0.000000
vt 0.343750 0.062500
vt 0.343750 0.500000
vt 0.343750 0.437500
vt 0.343750 0.375000
vt 0.343750 0.312500
vt 0.343750 0.250000
vt 0.343750 0.187500
vt 0.343750 0.125000
vt 0.312500 0.312500
vt 0.312500 0.250000
vt 0.312500 0.187500
vt 0.312500 0.125000
vt 0.312500 0.062500
vt 0.328125 0.000000
vt 0.312500 0.500000
vt 0.312500 0.437500
vt 0.312500 0.375000
vt 0.296875 0.000000
vt 0.281250 0.062500
vt 0.281250 0.500000
vt 0.281250 0.437500
vt 0.281250 0.375000
vt 0.281250 0.312500
vt 0.281250 0.250000
vt 0.281250 0.187500
vt 0.281250 0.125000
vt 0.250000 0.250000
vt 0.250000 0.187500
vt 0.250000 0.125000
vt 0.250000 0.062500
vt 0.265625 0.000000
vt 0.250000 0.500000
vt 0.250000 0.437500
vt 0.250000 0.375000
vt 0.250000 0.312500
vt 0.218750 0.500000
vt 0.218750 0.437500
vt 0.218750 0.375000
vt 0.218750 0.312500
vt 0.218750 0.250000
vt 0.218750 0.187500
vt 0.218750 0.125000
vt 0.218750 0.062500
vt 0.234375 0.000000
vt 0.187500 0.250000
vt 0.187500 0.187500
vt 0.187500 0.125000
vt 0.187500 0.062500
vt 0.203125 0.000000
vt 0.187500 0.500000
vt 0.187500 0.437500
vt 0.187500 0.375000
vt 0.187500 0.312500
vt 0.156250 0.437500
vt 0.156250 0.375000
vt 0.156250 0.312500
vt 0.156250 0.250000
vt 0.156250 0.187500
vt 0.156250 0.125000
vt 0.156250 0.062500
vt 0.171875 0.000000
vt 0.156250 0.500000
vt 0.125000 0.187500
vt 0.125000 0.125000
vt 0.125000 0.062500
vt 0.140625 0.000000
vt 0.125000 0.500000
vt 0.125000 0.437500
vt 0.125000 0.375000
vt 0.125000 0.312500
vt 0.125000 0.250000
vt 0.093750 0.375000
vt 0.093750 0.312500
vt 0.093750 0.250000
vt 0.093750 0.187500
vt 0.093750 0.125000
vt 0.093750 0.062500
vt 0.109375 0.000000
vt 0.093750 0.500000
vt 0.093750 0.437500
vt 0.062500 0.125000
vt 0.062500 0.062500
vt 0.078125 0.000000
vt 0.062500 0.500000
vt 0.062500 0.437500
vt 0.062500 0.375000
vt 0.062500 0.312500
vt 0.062500 0.250000
vt 0.062500 0.187500
vt 0.031250 0.375000
vt 0.031250 0.312500
vt 0.031250 0.250000
vt 0.031250 0.187500
vt 0.031250 0.125000
vt 0.031250 0.062500
vt 0.046875 0.000000
vt 0.031250 0.500000
vt 0.031250 0.437500
vt 0.000000 0.125000
vt 0.000000 0.062500
vt 0.015625 0.000000
vt 0.000000 0.500000
vt 0.000000 0.437500
vt 0.000000 0.375000
vt 0.000000 0.312500
vt 0.000000 0.250000
vt 0.000000 0.187500
vt 1.000000 0.250000
vt 1.000000 0.312500
vt 0.968750 0.312500
vt 0.968750 0.250000
vt 1.000000 0.187500
vt 0.968750 0.187500
vt 1.000000 0.125000
vt 0.968750 0.125000
vt 1.000000 0.062500
vt 0.968750 0.062500
vt 0.984375 0.000000
vt 1.000000 0.437500
vt 1.000000 0.500000
vt 0.968750 0.500000
vt 0.968750 0.437500
vt 1.000000 0.375000
vt 0.968750 0.375000
vt 0.953125 0.000000
vt 0.937500 0.062500
vt 0.937500 0.500000
vt 0.937500 0.437500
vt 0.937500 0.375000
vt 0.937500 0.312500
vt 0.937500 0.250000
vt 0.937500 0.187500
vt 0.937500 0.125000
vt 0.906250 0.312500
vt 0.906250 0.250000
vt 0.906250 0.187500
vt 0.906250 0.125000
vt 0.906250 0.062500
vt 0.921875 0.000000
vt 0.906250 0.500000
vt 0.906250 0.437500
vt 0.906250 0.375000
vt 0.890625 0.000000
vt 0.875000 0.062500
vt 0.875000 0.500000
vt 0.875000 0.437500
vt 0.875000 0.375000
vt 0.875000 0.312500
vt 0.875000 0.250000
vt 0.875000 0.187500
vt 0.875000 0.125000
vt 0.843750 0.250000
vt 0.843750 0.187500
vt 0.843750 0.125000
vt 0.843750 0.062500
vt 0.859375 0.000000
vt 0.843750 0.500000
vt 0.843750 0.437500
vt 0.843750 0.375000
vt 0.843750 0.312500
vt 0.812500 0.437500
vt 0.812500 0.375000
vt 0.812500 0.312500
vt 0.812500 0.250000
vt 0.812500 0.187500
vt 0.812500 0.125000
vt 0.812500 0.062500
vt 0.828125 0.000000
vt 0.812500 0.500000
vt 0.781250 0.187500
vt 0.781250 0.125000
vt 0.781250 0.062500
vt 0.796875 0.000000
vt 0.781250 0.500000
vt 0.781250 0.437500
vt 0.781250 0.375000
vt 0.781250 0.312500
vt 0.781250 0.250000
vt 0.765625 0.000000
s 0
f 510/297/257 259/298/257 262/299/257 263/300/257
f 260/301/258 510/297/258 263/300/258 264/302/258
f 511/303/259 260/301/259 264/302/259 265/304/259
f 512/305/260 511/303/260 265/304/260 266/306/260
f 513/307/261 512/305/261 266/306/261 267/308/261
f 514/309/262 513/307/262 267/308/262 268/310/262
f 421/311/263 514/309/263 268/310/263
f 259/298/264 258/312/264 261/313/264 262/299/264
f 421/314/265 268/310/265 276/315/265
f 262/299/266 261/313/266 269/316/266 270/317/266
f 263/300/267 262/299/267 270/317/267 271/318/267
f 264/302/268 263/300/268 271/318/268 272/319/268
f 265/304/269 264/302/269 272/319/269 273/320/269
f 266/306/270 265/304/270 273/320/270 274/321/270
f 267/308/271 266/306/271 274/321/271 275/322/271
f 268/310/272 267/308/272 275/322/272 276/315/272
f 274/321/273 273/320/273 281/323/273 282/324/273
f 275/322/274 274/321/274 282/324/274 283/325/274
f 276/315/275 275/322/275 283/325/275 284/326/275
f 421/327/276 276/315/276 284/326/276
f 270/317/277 269/316/277 277/328/277 278/329/277
f 271/318/278 270/317/278 278/329/278 279/330/278
f 272/319/279 271/318/279 279/330/279 280/331/279
f 273/320/280 272/319/280 280/331/280 281/323/280
f 278/329/281 277/328/281 285/332/281 286/333/281
f 279/330/282 278/329/282 286/333/282 287/334/282
f 280/331/283 279/330/283 287/334/283 288/335/283
f 281/323/284 280/331/284 288/335/284 289/336/284
f 282/324/285 281/323/285 289/336/285 290/337/285
f 283/325/286 282/324/286 290/337/286 291/338/286
f 284/326/287 283/325/287 291/338/287 292/339/287
f 421/340/288 284/326/288 292/339/288
f 290/337/289 289/336/289 297/341/289 298/342/289
f 291/338/290 290/337/290 298/342/290 299/343/290
f 292/339/291 291/338/291 299/343/291 300/344/291
f 421/345/292 292/339/292 300/344/292
f 286/333/293 285/332/293 293/346/293 294/347/293
f 287/334/294 286/333/294 294/347/294 295/348/294
f 288/335/295 287/334/295 295/348/295 296/349/295
f 289/336/296 288/335/296 296/349/296 297/341/296
f 295/348/297 294/347/297 302/350/297 303/351/297
f 296/349/298 295/348/298 303/351/298 304/352/298
f 297/341/299 296/349/299 304/352/299 305/353/299
f 298/342/300 297/341/300 305/353/300 306/354/300
f 299/343/301 298/342/301 306/354/301 307/355/301
f 300/344/302 299/343/302 307/355/302 308/356/302
f 421/357/303 300/344/303 308/356/303
f 294/347/304 293/346/304 301/358/304 302/350/304
f 307/355/305 306/354/305 314/359/305 315/360/305
f 308/356/306 307/355/306 315/360/306 316/361/306
f 421/362/307 308/356/307 316/361/307
f 302/350/308 301/358/308 309/363/308 310/364/308
f 303/351/309 302/350/309 310/364/309 311/365/309
f 304/352/310 303/351/310 311/365/310 312/366/310
f 305/353/311 304/352/311 312/366/311 313/367/311
f 306/354/312 305/353/312 313/367/312 314/359/312
f 311/365/313 310/364/313 318/368/313 319/369/313
f 312/366/314 311/365/314 319/369/314 320/370/314
f 313/367/315 312/366/315 320/370/315 321/371/315
f 314/359/316 313/367/316 321/371/316 322/372/316
f 315/360/317 314/359/317 322/372/317 323/373/317
f 316/361/318 315/360/318 323/373/318 324/374/318
f 421/375/319 316/361/319 324/374/319
f 310/364/320 309/363/320 317/376/320 318/368/320
f 323/373/321 322/372/321 330/377/321 331/378/321
f 324/374/322 323/373/322 331/378/322 332/379/322
f 421/380/323 324/374/323 332/379/323
f 318/368/324 317/376/324 325/381/324 326/382/324
f 319/369/325 318/368/325 326/382/325 327/383/325
f 320/370/326 319/369/326 327/383/326 328/384/326
f 321/371/327 320/370/327 328/384/327 329/385/327
f 322/372/328 321/371/328 329/385/328 330/377/328
f 328/384/329 327/383/329 335/386/329 336/387/329
f 329/385/330 328/384/330 336/387/330 337/388/330
f 330/377/331 329/385/331 337/388/331 338/389/331
f 331/378/332 330/377/332 338/389/332 339/390/332
f 332/379/333 331/378/333 339/390/333 340/391/333
f 421/392/334 332/379/334 340/391/334
f 326/382/335 325/381/335 333/393/335 334/394/335
f 327/383/336 326/382/336 334/394/336 335/386/336
f 340/391/337 339/390/337 347/395/337 348/396/337
f 421/397/338 340/391/338 348/396/338
f 334/394/339 333/393/339 341/398/339 342/399/339
f 335/386/340 334/394/340 342/399/340 343/400/340
f 336/387/341 335/386/341 343/400/341 344/401/341
f 337/388/342 336/387/342 344/401/342 345/402/342
f 338/389/343 337/388/343 345/402/343 346/403/343
f 339/390/344 338/389/344 346/403/344 347/395/344
f 345/402/345 344/401/345 352/404/345 353/405/345
f 346/403/346 345/402/346 353/405/346 354/406/346
f 347/395/347 346/403/347 354/406/347 355/407/347
f 348/396/348 347/395/348 355/407/348 356/408/348
f 421/409/349 348/396/349 356/408/349
f 342/399/350 341/398/350 349/410/350 350/411/350
f 343/400/351 342/399/351 350/411/351 351/412/351
f 344/401/352 343/400/352 351/412/352 352/404/352
f 421/413/353 356/408/353 364/414/353
f 350/411/354 349/410/354 357/415/354 358/416/354
f 351/412/355 350/411/355 358/416/355 359/417/355
f 352/404/356 351/412/356 359/417/356 360/418/356
f 353/405/357 352/404/357 360/418/357 361/419/357
f 354/406/358 353/405/358 361/419/358 362/420/358
f 355/407/359 354/406/359 362/420/359 363/421/359
f 356/408/360 355/407/360 363/421/360 364/414/360
f 361/419/361 360/418/361 368/422/361 369/423/361
f 362/420/362 361/419/362 369/423/362 370/424/362
f 363/421/363 362/420/363 370/424/363 371/425/363
f 364/414/364 363/421/364 371/425/364 372/426/364
f 421/427/365 364/414/365 372/426/365
f 358/416/366 357/415/366 365/428/366 366/429/366
f 359/417/367 358/416/367 366/429/367 367/430/367
f 360/418/368 359/417/368 367/430/368 368/422/368
f 421/431/369 372/426/369 380/432/369
f 366/429/370 365/428/370 373/433/370 374/434/370
f 367/430/371 366/429/371 374/434/371 375/435/371
f 368/422/372 367/430/372 375/435/372 376/436/372
f 369/423/373 368/422/373 376/436/373 377/437/373
f 370/424/374 369/423/374 377/437/374 378/438/374
f 371/425/375 370/424/375 378/438/375 379/439/375
f 372/426/376 371/425/376 379/439/376 380/432/376
f 378/438/377 377/437/377 385/440/377 386/441/377
f 379/439/378 378/438/378 386/441/378 387/442/378
f 380/432/379 379/439/379 387/442/379 388/443/379
f 421/444/380 380/432/380 388/443/380
f 374/434/381 373/433/381 381/445/381 382/446/381
f 375/435/382 374/434/382 382/446/382 383/447/382
f 376/436/383 375/435/383 383/447/383 384/448/383
f 377/437/384 376/436/384 384/448/384 385/440/384
f 382/446/385 381/445/385 389/449/385 390/450/385
f 383/447/386 382/446/386 390/450/386 391/451/386
f 384/448/387 383/447/387 391/451/387 392/452/387
f 385/440/388 384/448/388 392/452/388 393/453/388
f 386/441/389 385/440/389 393/453/389 394/454/389
f 387/442/390 386/441/390 394/454/390 395/455/390
f 388/443/391 387/442/391 395/455/391 396/456/391
f 421/457/392 388/443/392 396/456/392
f 394/454/393 393/453/393 401/458/393 402/459/393
f 395/455/394 394/454/394 402/459/394 403/460/394
f 396/456/395 395/455/395 403/460/395 404/461/395
f 421/462/396 396/456/396 404/461/396
f 390/450/397 389/449/397 397/463/397 398/464/397
f 391/451/398 390/450/398 398/464/398 399/465/398
f 392/452/399 391/451/399 399/465/399 400/466/399
f 393/453/400 392/452/400 400/466/400 401/458/400
f 399/465/401 398/464/401 406/467/401 407/468/401
f 400/466/402 399/465/402 407/468/402 408/469/402
f 401/458/403 400/466/403 408/469/403 409/470/403
f 402/459/404 401/458/404 409/470/404 410/471/404
f 403/460/405 402/459/405 410/471/405 411/472/405
f 404/461/406 403/460/406 411/472/406 412/473/406
f 421/474/407 404/461/407 412/473/407
f 398/464/408 397/463/408 405/475/408 406/467/408
f 411/472/409 410/471/409 418/476/409 419/477/409
f 412/473/410 411/472/410 419/477/410 420/478/410
f 421/479/411 412/473/411 420/478/411
f 406/467/412 405/475/412 413/480/412 414/481/412
f 407/468/413 406/467/413 414/481/413 415/482/413
f 408/469/414 407/468/414 415/482/414 416/483/414
f 409/470/415 408/469/415 416/483/415 417/484/415
f 410/471/416 409/470/416 417/484/416 418/476/416
f 416/483/417 415/482/417 424/485/417 425/486/417
f 417/484/418 416/483/418 425/486/418 426/487/418
f 418/476/419 417/484/419 426/487/419 427/488/419
f 419/477/420 418/476/420 427/488/420 428/489/420
f 420/478/421 419/477/421 428/489/421 429/490/421
f 421/491/422 420/478/422 429/490/422
f 414/481/423 413/480/423 422/492/423 423/493/423
f 415/482/424 414/481/424 423/493/424 424/485/424
f 429/490/425 428/489/425 436/494/425 437/495/425
f 421/496/426 429/490/426 437/495/426
f 423/493/427 422/492/427 430/497/427 431/498/427
f 424/485/428 423/493/428 431/498/428 432/499/428
f 425/486/429 424/485/429 432/499/429 433/500/429
f 426/487/430 425/486/430 433/500/430 434/501/430
f 427/488/431 426/487/431 434/501/431 435/502/431
f 428/489/432 427/488/432 435/502/432 436/494/432
f 433/500/433 432/499/433 440/503/433 441/504/433
f 434/501/434 433/500/434 441/504/434 442/505/434
f 435/502/435 434/501/435 442/505/435 443/506/435
f 436/494/436 435/502/436 443/506/436 444/507/436
f 437/495/437 436/494/437 444/507/437 445/508/437
f 421/509/438 437/495/438 445/508/438
f 431/498/439 430/497/439 438/510/439 439/511/439
f 432/499/440 431/498/440 439/511/440 440/503/440
f 445/508/441 444/507/441 452/512/441 453/513/441
f 421/514/442 445/508/442 453/513/442
f 439/511/443 438/510/443 446/515/443 447/516/443
f 440/503/444 439/511/444 447/516/444 448/517/444
f 441/504/445 440/503/445 448/517/445 449/518/445
f 442/505/446 441/504/446 449/518/446 450/519/446
f 443/506/447 442/505/447 450/519/447 451/520/447
f 444/507/448 443/506/448 451/520/448 452/512/448
f 450/521/449 449/522/449 457/523/449 458/524/449
f 451/525/450 450/521/450 458/524/450 459/526/450
f 452/527/451 451/525/451 459/526/451 460/528/451
f 453/529/452 452/527/452 460/528/452 461/530/452
f 421/531/453 453/529/453 461/530/453
f 447/532/454 446/533/454 454/534/454 455/535/454
f 448/536/455 447/532/455 455/535/455 456/537/455
f 449/522/456 448/536/456 456/537/456 457/523/456
f 421/538/457 461/530/457 469/539/457
f 455/535/458 454/534/458 462/540/458 463/541/458
f 456/537/459 455/535/459 463/541/459 464/542/459
f 457/523/460 456/537/460 464/542/460 465/543/460
f 458/524/461 457/523/461 465/543/461 466/544/461
f 459/526/462 458/524/462 466/544/462 467/545/462
f 460/528/463 459/526/463 467/545/463 468/546/463
f 461/530/464 460/528/464 468/546/464 469/539/464
f 466/544/465 465/543/465 473/547/465 474/548/465
f 467/545/466 466/544/466 474/548/466 475/549/466
f 468/546/467 467/545/467 475/549/467 476/550/467
f 469/539/468 468/546/468 476/550/468 477/551/468
f 421/552/469 469/539/469 477/551/469
f 463/541/470 462/540/470 470/553/470 471/554/470
f 464/542/471 463/541/471 471/554/471 472/555/471
f 465/543/472 464/542/472 472/555/472 473/547/472
f 421/556/473 477/551/473 485/557/473
f 471/554/474 470/553/474 478/558/474 479/559/474
f 472/555/475 471/554/475 479/559/475 480/560/475
f 473/547/476 472/555/476 480/560/476 481/561/476
f 474/548/477 473/547/477 481/561/477 482/562/477
f 475/549/478 474/548/478 482/562/478 483/563/478
f 476/550/479 475/549/479 483/563/479 484/564/479
f 477/551/480 476/550/480 484/564/480 485/557/480
f 483/563/481 482/562/481 490/565/481 491/566/481
f 484/564/482 483/563/482 491/566/482 492/567/482
f 485/557/483 484/564/483 492/567/483 493/568/483
f 421/569/484 485/557/484 493/568/484
f 479/559/485 478/558/485 486/570/485 487/571/485
f 480/560/486 479/559/486 487/571/486 488/572/486
f 481/561/487 480/560/487 488/572/487 489/573/487
f 482/562/488 481/561/488 489/573/488 490/565/488
f 488/572/489 487/571/489 495/574/489 496/575/489
f 489/573/490 488/572/490 496/575/490 497/576/490
f 490/565/491 489/573/491 497/576/491 498/577/491
f 491/566/492 490/565/492 498/577/492 499/578/492
f 492/567/493 491/566/493 499/578/493 500/579/493
f 493/568/494 492/567/494 500/579/494 501/580/494
f 421/581/495 493/568/495 501/580/495
f 487/571/496 486/570/496 494/582/496 495/574/496
f 500/579/497 499/578/497 507/583/497 508/584/497
f 501/580/498 500/579/498 508/584/498 509/585/498
f 421/586/499 501/580/499 509/585/499
f 495/574/500 494/582/500 502/587/500 503/588/500
f 496/575/501 495/574/501 503/588/501 504/589/501
f 497/576/502 496/575/502 504/589/502 505/590/502
f 498/577/503 497/576/503 505/590/503 506/591/503
f 499/578/504 498/577/504 506/591/504 507/583/504
f 504/589/505 503/588/505 259/298/505 510/297/505
f 505/590/506 504/589/506 510/297/506 260/301/506
f 506/591/507 505/590/507 260/301/507 511/303/507
f 507/583/508 506/591/508 511/303/508 512/305/508
f 508/584/509 507/583/509 512/305/509 513/307/509
f 509/585/510 508/584/510 513/307/510 514/309/510
f 421/592/511 509/585/511 514/309/511
f 503/588/512 502/587/512 258/312/512 259/298/512
o Cylinder.001
v -0.005909 -2.002890 -1.016146
v -0.005909 -0.005124 -1.016146
v 0.188964 -2.002890 -0.996953
v 0.188964 -0.005124 -0.996953
v 0.376347 -2.002890 -0.940111
v 0.376347 -0.005124 -0.940111
v 0.549041 -2.002890 -0.847804
v 0.549041 -0.005124 -0.847804
v 0.700408 -2.002890 -0.723580
v 0.700408 -0.005124 -0.723580
v 0.824632 -2.002890 -0.572213
v 0.824632 -0.005124 -0.572213
v 0.916939 -2.002890 -0.399519
v 0.916939 -0.005124 -0.399519
v 0.973781 -2.002890 -0.212136
v 0.973781 -0.005124 -0.212136
v 0.992974 -2.002890 -0.017264
v 0.992974 -0.005124 -0.017264
v 0.973781 -2.002890 0.177609
v 0.973781 -0.005124 0.177609
v 0.916939 -2.002890 0.364992
v 0.916939 -0.005124 0.364992
v 0.824632 -2.002890 0.537686
v 0.824632 -0.005124 0.537686
v 0.700408 -2.002890 0.689053
v 0.700408 -0.005124 0.689053
v 0.549041 -2.002890 0.813277
v 0.549041 -0.005124 0.813277
v 0.376347 -2.002890 0.905584
v 0.376347 -0.005124 0.905584
v 0.188964 -2.002890 0.962426
v 0.188964 -0.005124 0.962426
v -0.005909 -2.002890 0.981619
v -0.005909 -0.005124 0.981619
v -0.200781 -2.002890 0.962426
v -0.200781 -0.005124 0.962426
v -0.388164 -2.002890 0.905584
v -0.388164 -0.005124 0.905584
v -0.560858 -2.002890 0.813277
v -0.560858 -0.005124 0.813277
v -0.712225 -2.002890 0.689053
v -0.712225 -0.005124 0.689053
v -0.836449 -2.002890 0.537686
v -0.836449 -0.005124 0.537686
v -0.928756 -2.002890 0.364992
v -0.928756 -0.005124 0.364992
v -0.985598 -2.002890 0.177609
v -0.985598 -0.005124 0.177609
v -1.004791 -2.002890 -0.017264
v -1.004791 -0.005124 -0.017264
v -0.985598 -2.002890 -0.212136
v -0.985598 -0.005124 -0.212136
v -0.928756 -2.002890 -0.399519
v -0.928756 -0.005124 -0.399519
v -0.836449 -2.002890 -0.572213
v -0.836449 -0.005124 -0.572213
v -0.712225 -2.002890 -0.723580
v -0.712225 -0.005124 -0.723580
v -0.560858 -2.002890 -0.847804
v -0.560858 -0.005124 -0.847804
v -0.388164 -2.002890 -0.940111
v -0.388164 -0.005124 -0.940111
v -0.200781 -2.002890 -0.996953
v -0.200781 -0.005124 -0.996953
vn 0.0980 -0.0000 -0.9952
vn 0.2903 -0.0000 -0.9569
vn 0.4714 -0.0000 -0.8819
vn 0.6344 -0.0000 -0.7730
vn 0.7730 -0.0000 -0.6344
vn 0.8819 -0.0000 -0.4714
vn 0.9569 -0.0000 -0.2903
vn 0.9952 -0.0000 -0.0980
vn 0.9952 -0.0000 0.0980
vn 0.9569 -0.0000 0.2903
vn 0.8819 -0.0000 0.4714
vn 0.7730 -0.0000 0.6344
vn 0.6344 -0.0000 0.7730
vn 0.4714 -0.0000 0.8819
vn 0.2903 -0.0000 0.9569
vn 0.0980 -0.0000 0.9952
vn -0.0980 -0.0000 0.9952
vn -0.2903 -0.0000 0.9569
vn -0.4714 -0.0000 0.8819
vn -0.6344 -0.0000 0.7730
vn -0.7730 -0.0000 0.6344
vn -0.8819 -0.0000 0.4714
vn -0.9569 -0.0000 0.2903
vn -0.9952 -0.0000 0.0980
vn -0.9952 -0.0000 -0.0980
vn -0.9569 -0.0000 -0.2903
vn -0.8819 -0.0000 -0.4714
vn -0.7730 -0.0000 -0.6344
vn -0.6344 -0.0000 -0.7730
vn -0.4714 -0.0000 -0.8819
vn -0.0000 1.0000 -0.0000
vn -0.2903 -0.0000 -0.9569
vn -0.0980 -0.0000 -0.9952
vn -0.0000 -1.0000 -0.0000
vt 1.000000 0.500000
vt 1.000000 1.000000
vt 0.968750 1.000000
vt 0.968750 0.500000
vt 0.937500 1.000000
vt 0.937500 0.500000
vt 0.906250 1.000000
vt 0.906250 0.500000
vt 0.875000 1.000000
vt 0.875000 0.500000
vt 0.843750 1.000000
vt 0.843750 0.500000
vt 0.812500 1.000000
vt 0.812500 0.500000
vt 0.781250 1.000000
vt 0.781250 0.500000
vt 0.750000 1.000000
vt 0.750000 0.500000
vt 0.718750 1.000000
vt 0.718750 0.500000
vt 0.687500 1.000000
vt 0.687500 0.500000
vt 0.656250 1.000000
vt 0.656250 0.500000
vt 0.625000 1.000000
vt 0.625000 0.500000
vt 0.593750 1.000000
vt 0.593750 0.500000
vt 0.562500 1.000000
vt 0.562500 0.500000
vt 0.531250 1.000000
vt 0.531250 0.500000
vt 0.500000 1.000000
vt 0.500000 0.500000
vt 0.468750 1.000000
vt 0.468750 0.500000
vt 0.437500 1.000000
vt 0.437500 0.500000
vt 0.406250 1.000000
vt 0.406250 0.500000
vt 0.375000 1.000000
vt 0.375000 0.500000
vt 0.343750 1.000000
vt 0.343750 0.500000
vt 0.312500 1.000000
vt 0.312500 0.500000
vt 0.281250 1.000000
vt 0.281250 0.500000
vt 0.250000 1.000000
vt 0.250000 0.500000
vt 0.218750 1.000000
vt 0.218750 0.500000
vt 0.187500 1.000000
vt 0.187500 0.500000
vt 0.156250 1.000000
vt 0.156250 0.500000
vt 0.125000 1.000000
vt 0.125000 0.500000
vt 0.093750 1.000000
vt 0.093750 0.500000
vt 0.062500 1.000000
vt 0.062500 0.500000
vt 0.296822 0.485388
vt 0.250000 0.490000
vt 0.203178 0.485388
vt 0.158156 0.471731
vt 0.116663 0.449553
vt 0.080294 0.419706
vt 0.050447 0.383337
vt 0.028269 0.341844
vt 0.014612 0.296822
vt 0.010000 0.250000
vt 0.014612 0.203178
vt 0.028269 0.158156
vt 0.050447 0.116663
vt 0.080294 0.080294
vt 0.116663 0.050447
vt 0.158156 0.028269
vt 0.203178 0.014612
vt 0.250000 0.010000
vt 0.296822 0.014612
vt 0.341844 0.028269
vt 0.383337 0.050447
vt 0.419706 0.080294
vt 0.449553 0.116663
vt 0.471731 0.158156
vt 0.485388 0.203178
vt 0.490000 0.250000
vt 0.485388 0.296822
vt 0.471731 0.341844
vt 0.449553 0.383337
vt 0.419706 0.419706
vt 0.383337 0.449553
vt 0.341844 0.471731
vt 0.031250 1.000000
vt 0.031250 0.500000
vt 0.000000 1.000000
vt 0.000000 0.500000
vt 0.750000 0.490000
vt 0.796822 0.485388
vt 0.841844 0.471731
vt 0.883337 0.449553
vt 0.919706 0.419706
vt 0.949553 0.383337
vt 0.971731 0.341844
vt 0.985388 0.296822
vt 0.990000 0.250000
vt 0.985388 0.203178
vt 0.971731 0.158156
vt 0.949553 0.116663
vt 0.919706 0.080294
vt 0.883337 0.050447
vt 0.841844 0.028269
vt 0.796822 0.014612
vt 0.750000 0.010000
vt 0.703178 0.014612
vt 0.658156 0.028269
vt 0.616663 0.050447
vt 0.580294 0.080294
vt 0.550447 0.116663
vt 0.528269 0.158156
vt 0.514612 0.203178
vt 0.510000 0.250000
vt 0.514612 0.296822
vt 0.528269 0.341844
vt 0.550447 0.383337
vt 0.580294 0.419706
vt 0.616663 0.449553
vt 0.658156 0.471731
vt 0.703178 0.485388
s 0
f 515/593/513 516/594/513 518/595/513 517/596/513
f 517/596/514 518/595/514 520/597/514 519/598/514
f 519/598/515 520/597/515 522/599/515 521/600/515
f 521/600/516 522/599/516 524/601/516 523/602/516
f 523/602/517 524/601/517 526/603/517 525/604/517
f 525/604/518 526/603/518 528/605/518 527/606/518
f 527/606/519 528/605/519 530/607/519 529/608/519
f 529/608/520 530/607/520 532/609/520 531/610/520
f 531/610/521 532/609/521 534/611/521 533/612/521
f 533/612/522 534/611/522 536/613/522 535/614/522
f 535/614/523 536/613/523 538/615/523 537/616/523
f 537/616/524 538/615/524 540/617/524 539/618/524
f 539/618/525 540/617/525 542/619/525 541/620/525
f 541/620/526 542/619/526 544/621/526 543/622/526
f 543/622/527 544/621/527 546/623/527 545/624/527
f 545/624/528 546/623/528 548/625/528 547/626/528
f 547/626/529 548/625/529 550/627/529 549/628/529
f 549/628/530 550/627/530 552/629/530 551/630/530
f 551/630/531 552/629/531 554/631/531 553/632/531
f 553/632/532 554/631/532 556/633/532 555/634/532
f 555/634/533 556/633/533 558/635/533 557/636/533
f 557/636/534 558/635/534 560/637/534 559/638/534
f 559/638/535 560/637/535 562/639/535 561/640/535
f 561/640/536 562/639/536 564/641/536 563/642/536
f 563/642/537 564/641/537 566/643/537 565/644/537
f 565/644/538 566/643/538 568/645/538 567/646/538
f 567/646/539 568/645/539 570/647/539 569/648/539
f 569/648/540 570/647/540 572/649/540 571/650/540
f 571/650/541 572/649/541 574/651/541 573/652/541
f 573/652/542 574/651/542 576/653/542 575/654/542
f 518/655/543 516/656/543 578/657/543 576/658/543 574/659/543 572/660/543 570/661/543 568/662/543 566/663/543 564/664/543 562/665/543 560/666/543 558/667/543 556/668/543 554/669/543 552/670/543 550/671/543 548/672/543 546/673/543 544/674/543 542/675/543 540/676/543 538/677/543 536/678/543 534/679/543 532/680/543 530/681/543 528/682/543 526/683/543 524/684/543 522/685/543 520/686/543
f 575/654/544 576/653/544 578/687/544 577/688/544
f 577/688/545 578/687/545 516/689/545 515/690/545
f 515/691/546 517/692/546 519/693/546 521/694/546 523/695/546 525/696/546 527/697/546 529/698/546 531/699/546 533/700/546 535/701/546 537/702/546 539/703/546 541/704/546 543/705/546 545/706/546 547/707/546 549/708/546 551/709/546 553/710/546 555/711/546 557/712/546 559/713/546 561/714/546 563/715/546 565/716/546 567/717/546 569/718/546 571/719/546 573/720/546 575/721/546 577/722/546
